<svg fill="#ffffff" viewBox="0 0 256 256" id="Flat" xmlns="http://www.w3.org/2000/svg" stroke="#ffffff"
    stroke-width="12.8">
    <g id="SVGRepo_bgCarrier" stroke-width="0"></g>
    <g id="SVGRepo_tracerCarrier" stroke-linecap="round" stroke-linejoin="round"></g>
    <g id="SVGRepo_iconCarrier">
        <path
            d="M228,128A100,100,0,1,0,127.98877,228l.01123.001.01123-.001A100.11345,100.11345,0,0,0,228,128Zm-96,91.90771V148.001h28a4,4,0,0,0,0-8H132v-28a20.02229,20.02229,0,0,1,20-20h16a4,4,0,0,0,0-8H152a28.03145,28.03145,0,0,0-28,28v28H96a4,4,0,0,0,0,8h28v71.90673a92,92,0,1,1,8,0Z">
        </path>
    </g>
</svg>