<svg width="897" height="666" viewBox="0 0 897 666" fill="none" xmlns="http://www.w3.org/2000/svg">
    <path
        d="M744.5 27C738.868 28.9603 738.219 31.8246 740 39C740 39 744.5 48 744.5 61.5V84.5C744.5 101 740.5 108 740 110.5C739.5 113 748.212 110.816 751.5 104C757.195 93.6251 760.5 81.5 761.5 74C762.5 66.5 762.681 57.9503 762 47C759.957 34.9091 758.522 33.1918 756 29.5C751.673 25.6045 749.113 25.7992 744.5 27Z"
        fill="#9aa283" />
    <path
        d="M757 280.006C757 288.506 767 290.506 768.5 290.506C770 290.506 778 289.006 778 279.006C778 269.006 769.5 269.506 768.5 269.506C767.5 269.506 757 271.506 757 280.006Z"
        fill="#9aa283" />
    <path
        d="M759.5 330.006C759.5 329.006 758.5 325.006 764 325.506C769.5 326.006 769.5 333.506 769.5 334.506V359.506C769.5 360.506 770.5 388.006 770.5 389.506C770.5 391.006 771.862 401.682 772.5 409.506C773.327 419.643 772.5 420.006 774 435.506C775.5 451.006 777.5 447.006 779 448.006C780.5 449.006 784 444.506 785 443.006C786 441.506 790.5 433.506 793.5 428.506C796.5 423.506 804 410.506 807.5 403.506C811 396.506 814 393.506 819.5 383.006C825 372.506 831.5 358.506 831.5 358.506C831.5 358.506 845 336.006 852.5 327.506C860 319.006 870 312.006 874.5 310.006C879 308.006 882.5 308.006 886 309.006C889.5 310.006 889.5 314.006 889.5 316.506C889.5 319.006 889 319.506 887.5 321.006C886 322.506 883 323.006 882 323.006C881 323.006 879 318.506 878 318.506C877 318.506 876 319.006 874.5 320.006C873 321.006 865 327.006 859 336.006C853 345.006 849.5 354.506 849.5 355.506C849.5 356.506 850 363.506 852.5 372.506C855 381.506 861 390.006 863.5 394.006C866 398.006 877 414.506 881.5 425.006C886 435.506 888 450.506 889 460.506C890 470.506 884.5 480.006 884.5 480.006C884.5 480.006 877 490.006 865.5 492.006C854 494.006 838.5 494.506 838.5 494.506C838.5 494.506 819.5 496.506 819 496.506C818.5 496.506 819 496.006 821 494.506C823 493.006 831.5 492.006 831.5 492.006C831.5 492.006 852 488.006 856.5 487.006C861 486.006 866 486.006 872.5 482.506C879 479.006 884 470.006 883.5 466.006C883 462.006 885 452.006 882.5 441.506L882.346 440.859C879.957 430.818 878.896 426.36 874 419.506C869 412.506 874 419.006 862.5 404.506C851 390.006 847 376.006 847 376.006C847 376.006 843.5 357.006 842.5 357.006C841.5 357.006 835.5 362.506 831.5 369.506C827.5 376.506 811 407.506 811 407.506C811 407.506 783.5 454.506 781.5 457.006C779.5 459.506 777 460.506 775 460.506C773 460.506 772 456.006 771.5 451.006C771 446.006 766.5 412.006 766.5 412.006C766.5 412.006 764 384.006 764 383.006C764 382.006 762 354.006 762 353.006C762 352.006 759.5 331.006 759.5 330.006Z"
        fill="#9aa283" />
    <path fill-rule="evenodd" clip-rule="evenodd"
        d="M336.5 89C342.301 93.0941 345.706 92.9091 352 89C356.303 86.2 358.868 82.2444 361.434 78.2889C362.717 76.3111 364 74.3334 365.5 72.5C369.533 67.5703 372.517 65.9067 380.874 61.2472C381.841 60.7081 382.879 60.129 384 59.5C400.278 49.6691 415.377 46.6689 447.5 43.5C470.896 43.6332 485.126 47.82 513 64.5C531.942 74.9091 541.306 82.2265 548.5 106.5L549 108.5C549 108.5 506.5 109 502 112.5C497.5 116 497.5 122 497.5 122C497.5 122 496.5 123.889 500 128.5C503.5 133.111 513 123.5 526 122C539 120.5 556 120 556 120C556 120 562 126.5 560 152.5C558 178.5 548.5 201.5 548.5 201.5C548.5 201.5 529 242 521 257C513 272 491.5 296 491.5 296L447 348.5L406.5 392C406.5 392 406.5 332 406.5 309.5C406.5 287 406.5 271.5 406.5 251C406.5 230.5 410 162 409.5 140.5C409 119 406.5 83 406.5 80C406.5 77 405.5 70 401.5 69C397.5 68 395 68 391.5 69C388 70 380.5 77 380 84C379.5 91 381.5 103.5 382 110C382.5 116.5 385 160 386.5 191C388 222 389 245 390 283.5C391 322 386 414.597 385.5 416.048C385.197 416.927 382.145 420.207 379.451 423.102C377.695 424.988 376.092 426.711 375.5 427.5C375.2 427.9 374.64 428.46 373.92 429.18C371.04 432.06 365.6 437.5 364 445.5C362.078 455.108 364.311 461.024 365.819 465.02C365.881 465.183 365.941 465.343 366 465.5C367.5 469.5 373.5 480.5 378 485C380.702 487.702 382.142 488.602 382.97 489.118C383.521 489.462 383.8 489.637 384 490.06C384.398 490.904 384.162 511.906 384.05 521.955C384.021 524.531 384 526.388 384 527C384 528.079 384.194 532.006 384.443 537.035C384.885 545.983 385.5 558.418 385.5 564.5V586.5C385.5 594.5 404.5 601 411 601C417.5 601 417 584 416.5 573C416.138 565.046 415.515 558.399 414.82 550.979C414.554 548.138 414.277 545.184 414 542C413.293 533.875 411.3 522.505 410.19 516.178C409.73 513.551 409.421 511.794 409.421 511.5C409.421 510.5 419.5 520 419.5 520L451 549.5C451 549.5 486 581 489 584C490.455 585.455 496.259 590.554 502.708 596.219C509.559 602.237 517.137 608.894 521 612.5C528.5 619.5 544.5 632.5 550.5 637C556.5 641.5 581.5 658.5 581.5 657.5C581.5 657.038 573.483 650.375 564.071 642.554C553.129 633.461 540.301 622.801 536 618.5C528 610.5 474.5 559 474.5 559C474.5 559 409.843 497.382 409.421 496.691C409 496 409.421 480.5 409.421 480.5C409.421 480.5 406.941 418.5 407.471 417C408 415.5 423 398 426 394.5C427.228 393.067 434.49 385.936 443.223 377.36C455.821 364.988 471.48 349.611 476.5 344C477.495 342.887 478.738 341.5 480.168 339.904C490.947 327.871 512.378 303.946 519 296C526.5 287 551 249 560 231.5C566.961 217.965 573.024 195.158 576.571 181.817C577.61 177.909 578.434 174.813 579 173C581.5 165 585 151.5 584.5 137C584.188 127.944 583.485 123.569 583.124 121.317C582.906 119.962 582.812 119.376 583 119C583.4 118.2 594.68 118.68 599.944 118.904C601.26 118.96 602.2 119 602.5 119C604 119 605 183.5 604.5 209.5C604 235.5 603.5 258.5 602.5 282.5C601.716 301.31 602.775 321.656 603.751 340.409C604.021 345.582 604.284 350.635 604.5 355.5C605.5 378 604.5 406 604.5 406V467C604.5 478.433 605.521 488.078 606.469 497.031C606.848 500.608 607.215 504.074 607.5 507.5C608.5 519.5 621.5 525 621.5 525C621.5 525 629.5 528 631.5 525C633.167 522.5 633.097 520 633.028 517.5C633.014 517 633 516.5 633 516C633 514.691 632.714 506.141 632.392 496.506C631.976 484.067 631.5 469.818 631.5 467C631.5 465.348 631.282 460.311 631.007 453.983C630.451 441.158 629.665 423.026 630 417C630.5 408 630 397.5 627.5 377C626.887 371.97 626.032 366.067 625.092 359.572C622.202 339.596 618.5 314.017 618.5 291V201.5C618.5 201.5 620 154 620 144.5C620 141.333 619.944 137.222 619.889 133.111C619.778 124.889 619.667 116.667 620 116C620.347 115.305 624.075 115.093 628.164 114.861C629.958 114.759 631.822 114.653 633.5 114.5C639 114 669.5 112.5 679 112.5H697.5C697.5 112.5 710.5 114 714 110.5C717.5 107 717 106.5 717 106.5C717 106.5 719.5 100.5 711.5 95C703.5 89.5 695.5 88.5001 682 90.5C668.5 92.5 666.5 95 645.5 97.5C624.5 100 578.513 104.4 576.563 104C576.563 104 578 102 575 97.5C572 93.0001 557.708 79.1212 544.5 69C527.567 56.8549 517.127 51.3249 497 43.5C478.446 37.9223 467.496 34.7019 441.5 33C439.707 33.1727 437.991 33.3345 436.337 33.4905C420.873 34.9489 410.772 35.9015 393 40.5C379.878 44.3291 372.567 46.7154 360 53.5C351.397 60.0296 346.587 63.7214 339 72.5C334.977 77.1564 333.437 80.1873 336.5 89ZM384 445.5C383 445.5 379.8 457.5 382 463C384.2 468.5 385 468 385.5 467.534C386 467.068 388 460.5 387.5 456C387 451.5 385 445.5 384 445.5Z"
        fill="#9aa283" />
    <path fill-rule="evenodd" clip-rule="evenodd"
        d="M170 542.5C177.5 558.5 191 547.5 200 529.5C209 511.5 213 417.703 213.5 417.703C214 417.703 256 429 274.5 441C293 453 308.5 476.5 308.919 477.5C308.919 477.5 308.43 504.5 311 526.5C313.569 548.5 339 532 345 524C351 516 332.5 389 332.5 389L327.796 344C327.796 344 365 344.5 366 344C367 343.5 369 343 369 341C369 339 365.5 338 364 338C362.5 338 327.326 339.5 327.326 339.5L317.5 245.5L304 98C304 98 294.5 10 287 8.50002C279.5 7.00002 252.5 118 252.5 118L213.5 281C213.5 281 202.273 339 201.636 339.5C201 340 116.5 337 81.5 339.5C46.5 342 23.5 344 16 345.5C8.5 347 6 350 9 353.5C12 357 47 369.5 63 374C79 378.5 187.542 409 187.542 409L184.5 424C184.5 424 162.5 526.5 170 542.5ZM268 134C266.5 139.5 245 241.5 245 241.5C245 241.5 226.447 339 226.723 339.5C227 340 300.96 339.5 300.96 339.5L295 264L284 153C284 153 283.5 139.5 281 134C278.5 128.5 272 125.5 271 126C270 126.5 269.5 128.5 268 134ZM305.5 397L301.434 345.5C301.434 345.5 226.209 344.5 225.605 345.5C225 346.5 216 397 216 397C216 397 215 401.5 215.396 402C215.792 402.5 243.5 413 254 417.703C264.5 422.406 278 429 289 441C300 453 308 466 308.43 466C308.861 466 305.5 397 305.5 397ZM122 347.5C146 345.5 199.839 345 200.42 345.5C201 346 190.99 392 190.99 392L148.5 377.5L81.5 353.5C81.5 353.5 98 349.5 122 347.5Z"
        fill="#9aa283" />
    <path
        d="M744.5 84.5C744.5 101 740.5 108 740 110.5C739.5 113 748.212 110.816 751.5 104C757.195 93.6251 760.5 81.5 761.5 74C762.5 66.5 762.681 57.9503 762 47C759.957 34.9091 758.522 33.1918 756 29.5C751.673 25.6045 749.113 25.7992 744.5 27C738.868 28.9603 738.219 31.8246 740 39C740 39 744.5 48 744.5 61.5M744.5 84.5C744.5 68 744.5 75 744.5 61.5M744.5 84.5V61.5M385.5 564.5C385.5 574 385.5 578.5 385.5 586.5M385.5 564.5V586.5M385.5 564.5C385.5 558.418 384.885 545.983 384.443 537.035C384.194 532.006 384 528.079 384 527C384 526.388 384.021 524.531 384.05 521.955C384.162 511.906 384.398 490.904 384 490.06C383.8 489.637 383.521 489.462 382.97 489.118C382.142 488.602 380.702 487.702 378 485C373.5 480.5 367.5 469.5 366 465.5C365.941 465.343 365.881 465.183 365.819 465.02C364.311 461.024 362.078 455.108 364 445.5C365.6 437.5 371.04 432.06 373.92 429.18C374.64 428.46 375.2 427.9 375.5 427.5C376.092 426.711 377.695 424.988 379.451 423.102C382.145 420.207 385.197 416.927 385.5 416.048C386 414.597 391 322 390 283.5C389 245 388 222 386.5 191C385 160 382.5 116.5 382 110C381.5 103.5 379.5 91 380 84C380.5 77 388 70 391.5 69C395 68 397.5 68 401.5 69C405.5 70 406.5 77 406.5 80C406.5 83 409 119 409.5 140.5C410 162 406.5 230.5 406.5 251C406.5 271.5 406.5 287 406.5 309.5C406.5 332 406.5 392 406.5 392L447 348.5L491.5 296C491.5 296 513 272 521 257C529 242 548.5 201.5 548.5 201.5C548.5 201.5 558 178.5 560 152.5C562 126.5 556 120 556 120C556 120 539 120.5 526 122C513 123.5 503.5 133.111 500 128.5C496.5 123.889 497.5 122 497.5 122C497.5 122 497.5 116 502 112.5C506.5 109 549 108.5 549 108.5L548.5 106.5C541.306 82.2265 531.942 74.9091 513 64.5C485.126 47.82 470.896 43.6332 447.5 43.5C415.377 46.6689 400.278 49.6691 384 59.5C382.879 60.129 381.841 60.7081 380.874 61.2472C372.517 65.9067 369.533 67.5703 365.5 72.5C364 74.3334 362.717 76.3111 361.434 78.2889C358.868 82.2444 356.303 86.2 352 89C345.706 92.9091 342.301 93.0941 336.5 89C333.437 80.1873 334.977 77.1564 339 72.5C346.587 63.7214 351.397 60.0296 360 53.5C372.567 46.7154 379.878 44.3291 393 40.5C410.772 35.9015 420.873 34.9489 436.337 33.4905C437.991 33.3345 439.707 33.1727 441.5 33C467.496 34.7019 478.446 37.9223 497 43.5C517.127 51.3249 527.567 56.8549 544.5 69C557.708 79.1212 572 93.0001 575 97.5C578 102 576.563 104 576.563 104C578.513 104.4 624.5 100 645.5 97.5C666.5 95 668.5 92.5 682 90.5C695.5 88.5001 703.5 89.5 711.5 95C719.5 100.5 717 106.5 717 106.5C717 106.5 717.5 107 714 110.5C710.5 114 697.5 112.5 697.5 112.5M385.5 586.5C385.5 594.5 404.5 601 411 601C417.5 601 417 584 416.5 573C416.138 565.046 415.515 558.399 414.82 550.979C414.554 548.138 414.277 545.184 414 542C413.293 533.875 411.3 522.505 410.19 516.178C409.73 513.551 409.421 511.794 409.421 511.5C409.421 510.5 419.5 520 419.5 520L451 549.5C451 549.5 486 581 489 584C490.455 585.455 496.259 590.554 502.708 596.219C509.559 602.237 517.137 608.894 521 612.5C528.5 619.5 544.5 632.5 550.5 637C556.5 641.5 581.5 658.5 581.5 657.5C581.5 657.038 573.483 650.375 564.071 642.554C553.129 633.461 540.301 622.801 536 618.5C528 610.5 474.5 559 474.5 559C474.5 559 409.843 497.382 409.421 496.691C409 496 409.421 480.5 409.421 480.5C409.421 480.5 406.941 418.5 407.471 417C408 415.5 423 398 426 394.5C427.228 393.067 434.49 385.936 443.223 377.36C455.821 364.988 471.48 349.611 476.5 344C477.495 342.887 478.738 341.5 480.168 339.904C490.947 327.871 512.378 303.946 519 296C526.5 287 551 249 560 231.5C566.961 217.965 573.024 195.158 576.571 181.817C577.61 177.909 578.434 174.813 579 173C581.5 165 585 151.5 584.5 137C584.188 127.944 583.485 123.569 583.124 121.317C582.906 119.962 582.812 119.376 583 119C583.4 118.2 594.68 118.68 599.944 118.904C601.26 118.96 602.2 119 602.5 119C604 119 605 183.5 604.5 209.5C604 235.5 603.5 258.5 602.5 282.5C601.716 301.31 602.775 321.656 603.751 340.409C604.021 345.582 604.284 350.635 604.5 355.5C605.5 378 604.5 406 604.5 406M697.5 112.5C697.5 112.5 688.5 112.5 679 112.5M697.5 112.5H679M679 112.5C669.5 112.5 639 114 633.5 114.5C631.822 114.653 629.958 114.759 628.164 114.861C624.075 115.093 620.347 115.305 620 116C619.667 116.667 619.778 124.889 619.889 133.111C619.944 137.222 620 141.333 620 144.5C620 154 618.5 201.5 618.5 201.5M618.5 201.5C618.5 201.5 618.5 260.5 618.5 291M618.5 201.5V291M618.5 291C618.5 314.017 622.202 339.596 625.092 359.572C626.032 366.067 626.887 371.97 627.5 377C630 397.5 630.5 408 630 417C629.665 423.026 630.451 441.158 631.007 453.983C631.282 460.311 631.5 465.348 631.5 467C631.5 469.818 631.976 484.067 632.392 496.506C632.714 506.141 633 514.691 633 516C633 516.5 633.014 517 633.028 517.5C633.097 520 633.167 522.5 631.5 525C629.5 528 621.5 525 621.5 525C621.5 525 608.5 519.5 607.5 507.5C607.215 504.074 606.848 500.608 606.469 497.031C605.521 488.078 604.5 478.433 604.5 467M604.5 467C604.5 451 604.5 406 604.5 406M604.5 467V406M882.5 441.506C885 452.006 883 462.006 883.5 466.006C884 470.006 879 479.006 872.5 482.506C866 486.006 861 486.006 856.5 487.006C852 488.006 831.5 492.006 831.5 492.006C831.5 492.006 823 493.006 821 494.506C819 496.006 818.5 496.506 819 496.506C819.5 496.506 838.5 494.506 838.5 494.506C838.5 494.506 854 494.006 865.5 492.006C877 490.006 884.5 480.006 884.5 480.006C884.5 480.006 890 470.506 889 460.506C888 450.506 886 435.506 881.5 425.006C877 414.506 866 398.006 863.5 394.006C861 390.006 855 381.506 852.5 372.506C850 363.506 849.5 356.506 849.5 355.506C849.5 354.506 853 345.006 859 336.006C865 327.006 873 321.006 874.5 320.006C876 319.006 877 318.506 878 318.506C879 318.506 881 323.006 882 323.006C883 323.006 886 322.506 887.5 321.006C889 319.506 889.5 319.006 889.5 316.506C889.5 314.006 889.5 310.006 886 309.006C882.5 308.006 879 308.006 874.5 310.006C870 312.006 860 319.006 852.5 327.506C845 336.006 831.5 358.506 831.5 358.506C831.5 358.506 825 372.506 819.5 383.006C814 393.506 811 396.506 807.5 403.506C804 410.506 796.5 423.506 793.5 428.506C790.5 433.506 786 441.506 785 443.006C784 444.506 780.5 449.006 779 448.006C777.5 447.006 775.5 451.006 774 435.506C772.5 420.006 773.327 419.643 772.5 409.506C771.862 401.682 770.5 391.006 770.5 389.506C770.5 388.006 769.5 360.506 769.5 359.506M882.5 441.506L882.346 440.859M882.5 441.506C882.448 441.288 882.397 441.072 882.346 440.859M769.5 359.506C769.5 358.506 769.5 335.506 769.5 334.506M769.5 359.506V334.506M769.5 334.506C769.5 333.506 769.5 326.006 764 325.506C758.5 325.006 759.5 329.006 759.5 330.006C759.5 331.006 762 352.006 762 353.006C762 354.006 764 382.006 764 383.006C764 384.006 766.5 412.006 766.5 412.006C766.5 412.006 771 446.006 771.5 451.006C772 456.006 773 460.506 775 460.506C777 460.506 779.5 459.506 781.5 457.006C783.5 454.506 811 407.506 811 407.506C811 407.506 827.5 376.506 831.5 369.506C835.5 362.506 841.5 357.006 842.5 357.006C843.5 357.006 847 376.006 847 376.006C847 376.006 851 390.006 862.5 404.506C874 419.006 869 412.506 874 419.506C878.896 426.36 879.957 430.818 882.346 440.859M170 542.5C177.5 558.5 191 547.5 200 529.5C209 511.5 213 417.703 213.5 417.703C214 417.703 256 429 274.5 441C293 453 308.5 476.5 308.919 477.5C308.919 477.5 308.43 504.5 311 526.5C313.569 548.5 339 532 345 524C351 516 332.5 389 332.5 389L327.796 344C327.796 344 365 344.5 366 344C367 343.5 369 343 369 341C369 339 365.5 338 364 338C362.5 338 327.326 339.5 327.326 339.5L317.5 245.5L304 98C304 98 294.5 10 287 8.50002C279.5 7.00002 252.5 118 252.5 118L213.5 281C213.5 281 202.273 339 201.636 339.5C201 340 116.5 337 81.5 339.5C46.5 342 23.5 344 16 345.5C8.5 347 6 350 9 353.5C12 357 47 369.5 63 374C79 378.5 187.542 409 187.542 409L184.5 424C184.5 424 162.5 526.5 170 542.5ZM216 397C216 397 225 346.5 225.605 345.5C226.209 344.5 301.434 345.5 301.434 345.5L305.5 397C305.5 397 308.861 466 308.43 466C308 466 300 453 289 441C278 429 264.5 422.406 254 417.703C243.5 413 215.792 402.5 215.396 402C215 401.5 216 397 216 397ZM245 241.5C245 241.5 266.5 139.5 268 134C269.5 128.5 270 126.5 271 126C272 125.5 278.5 128.5 281 134C283.5 139.5 284 153 284 153L295 264L300.96 339.5C300.96 339.5 227 340 226.723 339.5C226.447 339 245 241.5 245 241.5ZM200.42 345.5C199.839 345 146 345.5 122 347.5C98 349.5 81.5 353.5 81.5 353.5L148.5 377.5L190.99 392C190.99 392 201 346 200.42 345.5ZM382 463C379.8 457.5 383 445.5 384 445.5C385 445.5 387 451.5 387.5 456C388 460.5 386 467.068 385.5 467.534C385 468 384.2 468.5 382 463ZM768.5 290.506C767 290.506 757 288.506 757 280.006C757 271.506 767.5 269.506 768.5 269.506C769.5 269.506 778 269.006 778 279.006C778 289.006 770 290.506 768.5 290.506Z"
        stroke="#9aa283" stroke-width="15" />
</svg>