<svg width="599" height="643" viewBox="0 0 599 643" fill="none" xmlns="http://www.w3.org/2000/svg">
    <path fill-rule="evenodd" clip-rule="evenodd"
        d="M45.8405 429.351C45.3241 429.479 44.6295 429.868 44.4786 430.302C44.1862 431.129 44.2227 432.07 44.0034 433.971C42.8883 436.375 45.6074 438.642 46.6357 441.379C46.7591 441.704 47.9473 442.042 48.1758 441.841C50.4379 439.867 52.6407 437.815 54.7612 435.685C55.0628 435.384 55.0948 434.387 54.8297 434.013C52.6589 430.919 50.1774 428.268 45.8405 429.351Z"
        fill="#ebeee3" />
    <path fill-rule="evenodd" clip-rule="evenodd"
        d="M36.5815 437.943C35.9691 435.895 34.333 434.47 31.8469 434.78C31.3031 434.954 30.6725 435.018 30.2566 435.352C30.1058 435.47 30.316 436.398 30.6176 436.668C32.5005 438.349 33.6841 440.209 33.1448 442.915C32.9163 444.053 33.0397 445.305 33.2316 446.466C33.2956 446.863 34.0314 447.412 34.493 447.448C36.7825 447.631 39.3509 444.565 38.1764 442.851C37.0705 441.252 37.0705 439.593 36.5815 437.943Z"
        fill="#ebeee3" />
    <path fill-rule="evenodd" clip-rule="evenodd"
        d="M66.7574 456.543C66.2867 455.935 65.7749 454.879 64.7877 455.46C64.0565 455.889 62.9597 457.192 63.0648 457.333C64.6186 459.417 62.3793 461.049 62.5439 462.9C62.5667 463.146 62.8775 463.37 63.1928 463.782C63.8463 463.407 64.5272 463.018 65.2082 462.63C68.5534 460.743 68.9282 459.344 66.7574 456.543Z"
        fill="#ebeee3" />
    <path fill-rule="evenodd" clip-rule="evenodd"
        d="M27.003 409.732C26.6785 409.659 25.9199 410.176 25.8514 410.518C25.6823 411.391 25.7965 412.314 25.7965 413.219C25.8514 413.219 25.9016 413.219 25.9565 413.219C25.9565 414.426 25.8696 415.646 25.9885 416.839C26.0662 417.616 26.61 417.903 27.0853 417.602C28.7305 416.569 29.6445 415.148 29.4982 413.109C29.4114 411.871 28.2141 410.011 27.003 409.732Z"
        fill="#ebeee3" />
    <path fill-rule="evenodd" clip-rule="evenodd"
        d="M175.784 533.072C175.83 533.054 175.757 532.574 175.624 532.396C173.718 529.85 170.739 529.361 168.239 528.072C167.681 528.886 167.174 529.311 167.115 529.791C167.055 530.275 167.348 531.194 167.654 531.271C168.385 531.454 169.093 531.674 169.811 531.884C170.135 532.286 170.506 532.674 171.077 533.017C171.314 532.734 171.232 532.487 171.072 532.249C172.146 532.615 173.202 533.049 174.212 533.625C174.536 533.808 175.268 533.31 175.784 533.072Z"
        fill="#ebeee3" />
    <path fill-rule="evenodd" clip-rule="evenodd"
        d="M41.0696 451.319C40.0779 450.981 38.7526 451.968 38.6383 453.134C38.4235 455.313 39.0131 456.502 40.3658 456.602C41.3118 456.671 43.5922 455.14 43.8116 454.281C44.0172 453.485 42.4497 451.79 41.0696 451.319Z"
        fill="#ebeee3" />
    <path fill-rule="evenodd" clip-rule="evenodd"
        d="M58.4582 444.857C58.3531 444.629 58.0652 444.487 57.8595 444.304C57.6676 444.533 57.3203 444.752 57.3157 444.985C57.2609 447.302 57.2472 449.624 57.2654 451.941C57.2654 452.192 57.5305 452.594 57.7407 452.64C57.9509 452.686 58.2571 452.402 58.4856 452.22C60.8255 450.364 60.894 449.903 59.459 447.215C59.0569 446.466 58.8238 445.63 58.4582 444.857Z"
        fill="#ebeee3" />
    <path fill-rule="evenodd" clip-rule="evenodd"
        d="M47.6413 423.036C47.6093 422.784 47.2574 422.364 47.0837 422.378C45.6945 422.496 44.1498 424.758 44.3554 426.367C44.3874 426.628 44.6982 426.847 44.881 427.089C46.1332 426.916 47.8195 424.484 47.6413 423.036Z"
        fill="#ebeee3" />
    <path fill-rule="evenodd" clip-rule="evenodd"
        d="M48.1575 461.428C47.9244 462.187 47.5816 462.996 48.5322 463.608C48.9069 463.389 49.6701 463.046 49.6381 462.936C49.4233 462.205 49.0395 461.524 48.7104 460.825C48.5185 461.026 48.226 461.195 48.1575 461.428Z"
        fill="#ebeee3" />
    <path fill-rule="evenodd" clip-rule="evenodd"
        d="M194.448 575.66C194.96 575.664 195.481 575.239 195.997 575.006C195.49 574.755 194.982 574.321 194.471 574.312C194.324 574.307 194.173 574.394 194.027 574.449C193.177 573.937 192.026 573.43 191.729 573.96C192.199 574.22 192.373 574.536 192.122 574.924C192.784 575.212 193.342 575.381 193.803 575.445C194.014 575.555 194.228 575.66 194.448 575.66Z"
        fill="#ebeee3" />
    <path fill-rule="evenodd" clip-rule="evenodd"
        d="M90.6951 158.501C90.3843 158.679 90.2792 159.219 90.1284 159.676C90.5763 159.561 91.0835 159.484 91.3075 159.196C91.6594 158.739 91.2024 158.213 90.6951 158.501Z"
        fill="#ebeee3" />
    <path fill-rule="evenodd" clip-rule="evenodd"
        d="M90.1281 159.68C90.0459 159.703 89.9545 159.717 89.8813 159.744C89.8813 159.808 89.8813 159.868 89.8813 159.931C89.9408 159.922 90.0002 159.913 90.055 159.909C90.0824 159.836 90.1053 159.753 90.1281 159.68Z"
        fill="#ebeee3" />
    <path fill-rule="evenodd" clip-rule="evenodd"
        d="M88.7481 161.051C88.8121 161.293 89.4199 161.394 89.8724 161.536C89.8724 161.001 89.8769 160.466 89.8769 159.931C89.2188 160.014 88.5105 160.114 88.7481 161.051Z"
        fill="#ebeee3" />
    <path fill-rule="evenodd" clip-rule="evenodd"
        d="M89.877 161.536C89.877 161.613 89.877 161.686 89.877 161.764C89.9135 161.755 89.9501 161.755 89.9866 161.746C90.0095 161.696 90.0323 161.636 90.0552 161.59C90.0003 161.568 89.9318 161.554 89.877 161.536Z"
        fill="#ebeee3" />
    <path fill-rule="evenodd" clip-rule="evenodd"
        d="M28.232 211.732C28.1818 211.742 28.1224 212.276 28.2001 212.317C28.5657 212.509 28.9632 212.642 29.3517 212.784C29.274 212.176 29.21 211.55 28.232 211.732Z"
        fill="#ebeee3" />
    <path fill-rule="evenodd" clip-rule="evenodd"
        d="M29.3564 212.783C29.3702 212.884 29.3839 212.989 29.4022 213.085C29.489 213.108 29.5712 213.094 29.6581 213.108C29.6489 213.021 29.5941 212.971 29.5941 212.879C29.5164 212.852 29.4387 212.815 29.3564 212.783Z"
        fill="#ebeee3" />
    <path fill-rule="evenodd" clip-rule="evenodd"
        d="M21.2175 225.561C21.4323 225.36 21.6425 225.164 21.8573 224.963C21.5282 224.09 21.0895 224.049 20.6462 224.899C20.596 224.995 21.0164 225.333 21.2175 225.561Z"
        fill="#ebeee3" />
    <path fill-rule="evenodd" clip-rule="evenodd"
        d="M15.4731 233.719C15.24 233.769 15.1257 234.4 14.9795 234.87C15.5005 234.87 16.026 234.875 16.547 234.875C16.4328 234.258 16.3871 233.527 15.4731 233.719Z"
        fill="#ebeee3" />
    <path fill-rule="evenodd" clip-rule="evenodd"
        d="M13.1331 236.703C13.0509 236.703 12.9732 236.703 12.8909 236.698C12.8726 236.799 12.8589 236.904 12.8452 237.009C12.932 236.977 13.0143 236.936 13.1011 236.899C13.1011 236.822 13.1286 236.771 13.1331 236.703Z"
        fill="#ebeee3" />
    <path fill-rule="evenodd" clip-rule="evenodd"
        d="M14.7232 235.094C13.7726 235.218 13.2014 235.711 13.1328 236.703C13.6629 236.712 14.1885 236.717 14.7186 236.721C14.7186 236.177 14.7186 235.633 14.7232 235.094Z"
        fill="#ebeee3" />
    <path fill-rule="evenodd" clip-rule="evenodd"
        d="M12.8452 237.009C12.4796 237.155 12.1049 237.288 11.7621 237.475C11.6844 237.516 11.7392 238.019 11.7758 238.024C12.6898 238.161 12.7721 237.589 12.8452 237.009Z"
        fill="#ebeee3" />
    <path fill-rule="evenodd" clip-rule="evenodd"
        d="M120.281 520.518C120.459 520.349 120.775 520.189 120.784 520.011C120.793 519.833 120.5 519.636 120.345 519.449C120.167 519.714 119.993 519.983 119.815 520.248C119.97 520.34 120.126 520.427 120.281 520.518Z"
        fill="#ebeee3" />
    <path fill-rule="evenodd" clip-rule="evenodd"
        d="M148.926 529.105C149.2 529.8 149.593 529.919 149.922 529.462C150.018 529.325 149.963 529.082 149.977 528.891C149.808 528.79 149.588 528.571 149.474 528.612C149.25 528.703 148.894 529.019 148.926 529.105Z"
        fill="#ebeee3" />
    <path fill-rule="evenodd" clip-rule="evenodd"
        d="M181.976 571.295C181.953 571.469 182.273 571.688 182.447 571.89C182.662 571.711 182.872 571.533 183.087 571.35C182.899 571.145 182.712 570.939 182.529 570.729C182.328 570.921 182.004 571.085 181.976 571.295Z"
        fill="#ebeee3" />
    <path fill-rule="evenodd" clip-rule="evenodd"
        d="M216.032 574.974C215.895 574.801 215.662 574.38 215.575 574.408C214.734 574.696 214.702 575.134 215.493 575.546C215.557 575.578 215.845 575.18 216.032 574.974Z"
        fill="#ebeee3" />
    <path fill-rule="evenodd" clip-rule="evenodd"
        d="M511.725 108.715C512.625 107.226 512.14 105.124 510.02 102.637C508.434 103.899 511.455 106.723 511.725 108.715Z"
        fill="#ebeee3" />
    <path fill-rule="evenodd" clip-rule="evenodd"
        d="M303.543 32.9311C299.91 32.5883 307.985 31.9714 303.639 31.1899C303.744 32.4558 299.964 31.2813 298.443 31.5418C297.675 32.9448 302.734 34.1924 303.543 32.9311Z"
        fill="#ebeee3" />
    <path fill-rule="evenodd" clip-rule="evenodd"
        d="M183.196 43.4194C180.532 44.3014 180.258 45.476 181.099 46.7739C183.736 45.8964 184.014 44.7219 183.196 43.4194Z"
        fill="#ebeee3" />
    <path fill-rule="evenodd" clip-rule="evenodd"
        d="M340.733 35.6868C338.832 35.8514 337.507 36.4912 335.341 36.4318C335.391 35.1522 322.476 32.2411 320.004 34.2748C326.717 35.2527 332.85 35.9976 339.033 37.1721C342.136 37.7113 345.267 38.2552 348.525 38.8219C351.765 39.4754 355.129 40.1563 358.703 40.8784C357.295 38.8173 353.849 38.1592 350.266 37.6702C346.67 37.195 342.9 37.1081 340.733 35.6868Z"
        fill="#ebeee3" />
    <path fill-rule="evenodd" clip-rule="evenodd"
        d="M317.276 30.5092C313.798 30.1801 313.551 32.0584 309.863 31.574C311.17 33.0227 307.044 33.5162 309.685 33.891C311.024 31.9624 315.699 32.3097 317.276 30.5092Z"
        fill="#ebeee3" />
    <path fill-rule="evenodd" clip-rule="evenodd"
        d="M15.2627 232.22C16.3093 227.965 17.6254 225.305 18.6034 222.993C17.8677 222.796 16.7846 225.324 15.9939 227.787C15.1896 230.246 14.984 232.722 15.2627 232.22Z"
        fill="#ebeee3" />
    <path fill-rule="evenodd" clip-rule="evenodd"
        d="M153.934 105.228C155.539 104.15 156.238 105.005 157.983 103.611C157.764 102.276 152.874 104.273 153.934 105.228Z"
        fill="#ebeee3" />
    <path fill-rule="evenodd" clip-rule="evenodd"
        d="M354.932 8.6918L357.176 9.2219C357.482 8.54554 356.491 8.17997 356.719 7.52189C355.307 7.23855 354.151 7.17911 353.571 7.5767C355.787 7.98343 356.13 8.27136 354.932 8.6918Z"
        fill="#ebeee3" />
    <path fill-rule="evenodd" clip-rule="evenodd"
        d="M373.944 52.9432L377.133 54.0583C377.979 52.5 374.154 51.6682 373.944 52.9432Z" fill="#ebeee3" />
    <path fill-rule="evenodd" clip-rule="evenodd"
        d="M388.17 40.2842C387.718 39.7358 384.112 37.9626 383.436 38.6116C385.3 38.9269 386.776 41.0291 388.17 40.2842Z"
        fill="#ebeee3" />
    <path fill-rule="evenodd" clip-rule="evenodd"
        d="M390.912 57.7463C388.947 56.9877 387.306 56.6221 386.187 56.8597C387.727 57.1111 390.912 59.3047 390.912 57.7463Z"
        fill="#ebeee3" />
    <path fill-rule="evenodd" clip-rule="evenodd"
        d="M399.298 56.9009C400.121 56.4348 398.686 55.5619 397.365 55.0821C396.008 54.6845 394.783 54.6434 396.136 55.5391C397.109 54.6571 397.562 56.6404 399.298 56.9009Z"
        fill="#ebeee3" />
    <path fill-rule="evenodd" clip-rule="evenodd"
        d="M400.541 57.4675C403.233 58.9116 403.859 58.4135 405.541 59.7799C406.519 58.6922 400.632 56.4301 400.541 57.4675Z"
        fill="#ebeee3" />
    <path fill-rule="evenodd" clip-rule="evenodd"
        d="M432.965 72.7405C431.617 71.6026 431.11 71.5798 430.552 69.9574C430.301 70.4007 429.332 69.6512 428.989 69.9346C429.382 70.6658 431.526 73.1244 432.965 72.7405Z"
        fill="#ebeee3" />
    <path fill-rule="evenodd" clip-rule="evenodd"
        d="M452.388 45.9876C450.742 45.3204 447.548 42.2905 447.365 43.8992C449.28 44.9503 451.743 46.8834 452.388 45.9876Z"
        fill="#ebeee3" />
    <path fill-rule="evenodd" clip-rule="evenodd"
        d="M451.172 92.5195C453.192 94.0916 454.842 95.6408 456.153 97.1443C456.537 96.0475 452.612 92.6886 451.172 92.5195Z"
        fill="#ebeee3" />
    <path fill-rule="evenodd" clip-rule="evenodd"
        d="M479.767 92.78C481.165 93.959 482.463 94.8731 483.487 95.0422C482.943 93.5706 480.713 92.5195 479.767 92.78Z"
        fill="#ebeee3" />
    <path fill-rule="evenodd" clip-rule="evenodd"
        d="M487.508 114.876C486.146 113.477 483.793 111.919 484.478 111.032C485.534 111.686 487.165 114.113 487.814 113.551C485.447 109.323 479.867 108.236 475.754 105.265C477.797 108.464 484.766 113.551 487.508 114.876Z"
        fill="#ebeee3" />
    <path fill-rule="evenodd" clip-rule="evenodd"
        d="M537.755 135.637C539.026 137.429 540.383 136.533 540.205 135.683L538.839 133.864C537.915 134.184 539.003 135.477 537.755 135.637Z"
        fill="#ebeee3" />
    <path fill-rule="evenodd" clip-rule="evenodd"
        d="M550.332 169.309C547.078 166.302 548.097 164.346 545.035 161.353C544.862 162.747 548.659 170.465 550.332 169.309Z"
        fill="#ebeee3" />
    <path fill-rule="evenodd" clip-rule="evenodd"
        d="M565.577 199.572C566.172 199.247 566.734 199.229 567.264 199.636C565.203 195.925 564.673 192.525 562.351 189.668C562.611 190.898 560.103 189.243 559.344 187.036C558.987 187.342 558.307 187.415 558.626 188.215C561.231 192.593 564.805 193.347 565.577 199.572Z"
        fill="#ebeee3" />
    <path fill-rule="evenodd" clip-rule="evenodd"
        d="M568.845 197.287L570.198 200.774C571.706 201.368 569.517 195.724 568.845 197.287Z" fill="#ebeee3" />
    <path fill-rule="evenodd" clip-rule="evenodd"
        d="M567.876 206.614C568.365 206.271 569.293 206.312 569.042 205.321C566.994 206.02 569.01 201.185 566.734 201.482C567.191 203.301 567.341 203.918 567.876 206.614Z"
        fill="#ebeee3" />
    <path fill-rule="evenodd" clip-rule="evenodd"
        d="M544.866 484.53C543.545 485.288 544.163 486.362 542.353 488.304C542.865 489.835 545.652 488.414 545.387 486.645C544.775 487.322 544.062 487.838 543.445 488.112C543.198 487.404 545.469 485.137 544.866 484.53Z"
        fill="#ebeee3" />
    <path fill-rule="evenodd" clip-rule="evenodd"
        d="M430.132 587.542C432.974 585.75 435.881 584.452 435.584 583.383C433.527 585.517 429.684 586.116 428.404 587.542C429.25 587.167 430.059 586.843 430.132 587.542Z"
        fill="#ebeee3" />
    <path fill-rule="evenodd" clip-rule="evenodd"
        d="M360.037 614.24C361.719 613.669 363.108 613.029 363.401 612.156C361.463 612.677 358.707 613.006 360.037 614.24Z"
        fill="#ebeee3" />
    <path fill-rule="evenodd" clip-rule="evenodd"
        d="M293.374 625.578C287.763 626.332 284.947 626.072 280.423 626.355C284.157 627.164 289.353 627.753 292.648 626.382C291.277 626.263 292.954 625.962 293.374 625.578Z"
        fill="#ebeee3" />
    <path fill-rule="evenodd" clip-rule="evenodd"
        d="M285.688 623.037C287.324 622.191 290.175 621.735 291.638 620.624C288.151 621.026 286.36 620.848 285.688 623.037Z"
        fill="#ebeee3" />
    <path fill-rule="evenodd" clip-rule="evenodd"
        d="M279.646 623.233C281.182 622.333 282.754 624.632 284.938 623.407C285.044 622.443 284.523 621.785 283.403 621.419C281.328 621.835 279.377 622.315 276.626 622.352C277.27 623.745 276.708 623.307 277.366 624.705C276.137 624.541 275.309 625.153 276.603 625.45C277.558 624.422 281.068 624.778 281.918 623.7C281.026 623.604 279.77 623.69 279.646 623.233Z"
        fill="#ebeee3" />
    <path fill-rule="evenodd" clip-rule="evenodd"
        d="M267.385 626.986C271.164 629.366 267.554 627.506 270.456 627.132C272.257 626.899 274.802 628.014 275.835 626.574C272.293 626.944 270.598 626.204 267.385 626.986Z"
        fill="#ebeee3" />
    <path fill-rule="evenodd" clip-rule="evenodd"
        d="M243.639 624.709C246.203 624.938 252.765 625.683 252.112 625.084C248.703 624.577 245.591 624.248 243.639 624.709Z"
        fill="#ebeee3" />
    <path fill-rule="evenodd" clip-rule="evenodd"
        d="M233.444 619.687C235.331 619.934 235.889 619.326 237.223 620.258C238.169 618.828 232.946 618.037 233.444 619.687Z"
        fill="#ebeee3" />
    <path fill-rule="evenodd" clip-rule="evenodd"
        d="M226.228 612.243C228.782 612.279 229.326 613.038 230.716 612.604C230.222 612.211 225.789 610.771 226.228 612.243Z"
        fill="#ebeee3" />
    <path fill-rule="evenodd" clip-rule="evenodd"
        d="M217.563 568.686C219.519 569.184 221.47 570.606 223.248 570.103L223.504 568.965C220.959 568.316 219.674 568.905 217.563 568.686Z"
        fill="#ebeee3" />
    <path fill-rule="evenodd" clip-rule="evenodd"
        d="M187.739 574.993C190.079 575.28 191.102 576.418 192.4 576.249C191.925 575.989 191.747 575.673 191.998 575.285C190.033 574.572 187.821 573.548 187.739 574.993Z"
        fill="#ebeee3" />
    <path fill-rule="evenodd" clip-rule="evenodd"
        d="M173.143 581.889C173.851 582.305 174.011 582.753 174.171 583.2C177.352 583.511 178.38 583.932 180.77 583.995C177.841 582.629 177.379 582.885 175.542 581.66C176.063 583.383 173.216 580.952 173.143 581.889Z"
        fill="#ebeee3" />
    <path fill-rule="evenodd" clip-rule="evenodd"
        d="M162.672 533.182C164.587 534.114 165.597 535.078 166.772 536.033C168.056 533.054 171.209 539.333 173.202 537.03C171.78 536.668 168.595 535.919 169.651 534.48C172.027 534.278 174.984 538.085 175.701 536.074C171.968 534.722 169.536 533.735 167.151 531.317C168.645 534.233 164.971 531.884 166.242 534.374C165.03 533.94 162.832 531.646 162.672 533.182Z"
        fill="#ebeee3" />
    <path fill-rule="evenodd" clip-rule="evenodd"
        d="M95.932 529.845C94.2046 530.865 96.6404 532.565 98.0982 532.798C96.2702 531.568 97.7509 531.075 95.932 529.845Z"
        fill="#ebeee3" />
    <path fill-rule="evenodd" clip-rule="evenodd"
        d="M72.159 519.595C74.1241 520.212 69.5997 514.76 68.2287 514.239C68.1968 515.925 67.4839 517.392 68.2379 519.371C69.2387 519.184 70.0202 518.197 71.3866 519.335C71.5466 520.244 75.984 525.669 76.6787 524.38C75.4722 522.447 73.8361 521.263 72.159 519.595Z"
        fill="#ebeee3" />
    <path fill-rule="evenodd" clip-rule="evenodd"
        d="M182.794 549.236C182.845 549.241 182.886 549.259 182.936 549.268C182.9 549.236 182.858 549.204 182.822 549.172L182.794 549.236Z"
        fill="#ebeee3" />
    <path fill-rule="evenodd" clip-rule="evenodd"
        d="M319.072 605.685L319.113 606.005C320.31 605.712 321.503 605.424 322.632 605.15C321.439 605.328 320.255 605.506 319.072 605.685Z"
        fill="#ebeee3" />
    <path fill-rule="evenodd" clip-rule="evenodd"
        d="M598.701 312.697C598.203 304.375 597.709 296.186 597.234 288.307C597.101 286.342 596.964 284.395 596.836 282.467C596.571 280.547 596.311 278.651 596.055 276.777C595.529 273.03 595.017 269.378 594.519 265.85C592.641 263.026 592.965 252.332 589.296 249.901C589.09 245.646 589.054 244.143 587.226 240.254C589.757 241.346 586.238 235.693 588.117 236.04C586.421 232.873 587.116 228.413 585.347 227.321C586.211 231.968 588.057 234.605 586.622 236.47C585.914 232.046 583.661 227.769 584.529 224.382C583.218 221.11 579.424 215.466 579.932 212.281C578.131 212.555 578.844 208.309 577.085 206.865C576.363 206.838 576.564 208.287 576.015 207.304C574.215 204.836 574.466 200.787 572.78 198.831C573.068 199.704 573.319 200.545 572.611 200.545C571.523 198.507 572.423 198.21 571.326 196.172C570.042 196.45 571.925 199.471 571.898 200.856C573.584 201.829 576.742 209.904 576.253 211.262C574.731 209.086 573.575 208.643 573.776 205.764C572.606 205.663 573.584 207.464 572.871 207.761C573.749 210.096 574.941 209.69 575.791 212.249C574.649 212.167 573.666 210.768 572.583 210.302C573.424 212.857 574.717 211.632 575.59 213.94C575.165 214.872 573.607 212.299 574.142 214.497C574.466 214.707 574.676 215 574.836 215.334C574.603 215.398 574.375 215.416 574.142 215.53C573.666 215.768 573.196 216.019 572.725 216.266C572.807 215.946 572.99 215.708 573.314 215.603C572.112 213.688 572.341 213.277 572.122 211.285C571.24 211.664 571.953 214.794 572.419 216.43C571.409 216.965 570.399 217.5 569.361 217.97C569.288 218.002 569.092 217.865 568.891 217.678C568.726 217.015 568.502 216.343 568.228 215.667C568.164 214.867 568.036 214.127 567.332 213.538C566.455 211.463 565.769 209.479 566.706 207.898C564.27 206.701 561.519 197.328 561.816 194.823C560.902 194.997 559.833 193.795 558.946 192.305C558.946 191.775 558.965 191.241 559.038 190.697C559.143 189.952 558.553 189.71 557.744 189.888C557.214 188.54 556.977 187.397 557.301 187.237C556.172 186.191 555.048 185.066 553.924 183.887C553.545 182.973 553.184 182.064 552.781 181.155C552.868 181.173 552.95 181.218 553.037 181.228C551.634 178.17 550.149 175.355 548.614 172.613C548.582 172.563 548.55 172.513 548.513 172.467C545.149 166.197 541.224 160.123 536.864 154.521C535.351 151.966 533.811 149.274 532.162 146.281C531.65 146.706 531.024 146.418 530.356 145.801C530.05 142.867 527.007 139.897 524.553 137.278C523.977 135.267 522.999 133.334 521.742 131.488C521.842 131.341 521.938 131.191 522.098 131.054C521.226 129.92 520.846 129.765 520.586 129.897C520.216 129.413 519.827 128.938 519.43 128.462C517.78 126.452 515.975 124.487 514.275 122.517C512.497 120.611 510.82 118.692 509.49 116.681C505.363 110.219 501.268 103.602 496.621 97.3179C491.799 91.2398 486.347 85.5455 479.154 81.9169C477.747 80.7699 477.66 82.7715 476.362 81.8667C472.171 77.941 466.573 74.3628 460.943 70.5742C455.084 67.1284 449.225 63.3948 443.65 60.1775C435.89 55.3562 429.108 49.1729 420.37 45.9419C415.243 44.2053 410.632 42.9897 406.308 42.6012C401.944 42.2905 397.932 42.6653 394.129 43.858C386.557 40.6636 375.813 44.1596 368.981 38.927C367.276 39.1372 367.121 40.8921 364.324 39.9735C362.313 39.5485 362.537 38.6345 361.6 38.0176C361.134 40.1381 362.304 39.8958 360.704 41.3811C366.586 41.8655 369.15 42.9349 374.497 42.4002C375.804 42.976 376.155 43.7666 378.285 44.2647C390.153 44.4567 404.348 45.5534 419.278 50.5759C433.641 55.6166 445.565 65.9585 456.085 68.9473C458.018 70.5194 455.961 71.6664 457.118 73.1517C462.88 74.7238 465.207 79.9701 470.937 83.4251C474.872 86.0071 479.739 86.4047 484.012 89.7499C488.207 93.2917 491.105 96.7603 494.093 100.38C496.982 104.118 499.925 108.053 504.28 112.6C504.307 112.856 504.367 113.116 504.422 113.377C502.329 111.645 500.834 109.981 497.521 107.427C497.983 106.622 499.248 108.633 499.815 108.167C497.407 105.658 495.263 104.086 493.417 102.487C491.594 100.864 490.104 99.1824 488.765 96.6461C487.764 98.1999 485.059 95.074 483.77 95.8189C486.617 98.5198 490.241 101.888 490.218 104.749C487.435 103.222 487.892 100.713 486.238 100.631C487.965 103.94 490.04 105.708 492.439 107.404C494.838 109.09 497.306 110.964 500.048 114.085C499.692 114.478 499.216 114.437 498.737 114.382C500.14 116.905 502.968 118.568 505.107 120.108C505.564 120.835 506.108 121.521 506.615 122.229C506.259 122.005 505.87 121.822 505.422 121.74C505.902 122.718 506.455 123.719 506.839 124.66C506.442 124.423 506.067 124.281 505.82 124.327C506.314 124.834 506.775 125.337 507.186 125.816C507.292 126.328 507.328 126.813 507.182 127.233C503.549 125.241 500.162 124.276 496.831 123.477C496.346 122.736 495.958 122.023 495.702 121.356L494.866 122.165C495.355 122.567 495.693 122.928 495.949 123.257C495.469 123.143 494.985 123.033 494.505 122.924C494.29 122.704 494.071 122.462 493.842 122.206C494.263 121.786 493.463 119.93 492.905 121.201C493.55 121.841 493.687 122.316 493.431 122.677C493.426 122.677 493.422 122.677 493.413 122.672C492.27 121.996 490.926 121.562 490.031 120.661C489.039 119.661 488.683 118.061 487.823 116.891C486.667 115.319 483.253 115.347 482.477 117.12C482.216 117.714 481.933 118.239 481.626 118.747C480.594 118.203 479.538 117.577 478.455 116.864C478.875 114.926 478.574 112.956 477.737 111.01C477.609 110.713 476.695 110.699 476.138 110.671C475.914 110.662 475.544 110.918 475.466 111.138C475.43 111.229 475.388 111.339 475.347 111.448C473.752 110.763 472.107 109.84 471.7 107.916C471.23 108.4 471.033 108.939 471.207 109.547C472.441 110.361 473.643 111.074 475.059 112.449C475.046 112.591 475.055 112.71 475.119 112.769C475.8 113.468 476.147 114.231 476.38 115.022C473.149 111.905 470.101 109.314 467.126 107.354C466.44 106.915 465.769 106.517 465.101 106.124C465.193 106.042 465.28 105.955 465.371 105.868C465.188 105.64 465.005 105.411 464.818 105.183C464.654 105.343 464.439 105.503 464.329 105.667C462.172 104.443 460.106 103.46 458.109 102.647C457.378 101.892 456.702 101.175 456.135 100.54C455.413 100.014 454.604 99.5252 453.768 99.0453C441.708 88.0499 425.873 77.3652 408.57 69.5597C389.632 60.8538 369.314 55.548 352.314 53.688C348.452 51.8692 344.782 50.4982 340.77 49.6848C336.767 48.8073 332.475 48.1904 327.33 48.1813C322.065 43.465 311.76 42.8115 301.71 43.3416C299.201 43.4787 296.692 43.6158 294.261 43.7483C291.834 43.9403 289.485 44.1551 287.278 44.2373C282.859 44.3744 279.006 44.2282 276.164 43.2639C271.356 49.2643 255.197 47.7836 249.498 45.782C248.794 47.9207 246.454 48.8896 243.648 49.2643C240.847 49.6528 237.598 49.6345 235.057 49.4517C234.865 48.62 238.809 46.8376 234.714 47.7425C232.758 47.9573 232.941 48.8987 232.031 49.4608C230.002 48.5331 227.498 48.1447 226.278 46.5635C222.562 47.0524 222.329 48.556 218.623 49.0541C219.309 47.6922 219.683 46.2299 221.817 45.2656C226.927 43.1908 228.088 44.8131 231.067 44.9091C230.642 43.5107 228.787 43.5107 231.574 42.4367C233.622 45.718 237.803 40.2934 240.943 42.9669C239.119 43.4056 237.712 43.986 237.205 44.8817C240.947 43.5473 245.508 42.2813 248.835 41.18C247.775 41.3582 246.253 41.2851 247.752 40.7504C229.605 40.0649 212.65 43.337 196.687 48.9079C180.692 54.5107 165.638 62.3893 150.512 71.7441C148.145 71.4791 144.69 73.0603 141.372 74.413C133.379 81.172 127.273 85.3491 128.631 91.971C138.429 84.9012 145.718 78.3615 163.157 69.5688C167.416 69.0204 171.159 69.6511 173.366 72.3245C160.68 80.747 144.534 85.5456 133.612 95.5447C132.076 96.9843 131.875 98.1542 130.326 99.3652C120.884 106.906 115.355 109.73 108.719 114.72C95.8363 124.432 84.9917 137.986 74.5172 150.079C72.2505 152.761 67.8862 153.954 67.5937 158.455C70.7515 155.348 73.9825 152.057 76.7063 148.781C79.4894 145.541 82.0212 142.492 83.6298 139.709C87.1898 136.812 91.9883 132.909 96.5538 128.536C101.407 124.432 106.096 119.875 110.277 116.452C112.677 115.123 114.916 113.77 117.037 112.376C119.212 111.046 121.309 109.721 123.316 108.332C127.296 105.498 131.172 102.738 135.17 99.8862C143.113 94.1417 151.759 88.219 163.582 83.1189C166.196 85.2348 168.614 83.2971 172.544 81.7113C173.819 84.9194 177.237 84.8144 181.611 83.2331C183.608 81.3503 179.143 81.757 181.254 80.1941C184.142 80.0158 186.88 79.9976 188.242 82.1409C185.966 83.0823 183.525 84.5264 182.095 84.2842C184.033 86.4458 189 83.8181 190.307 86.944C186.331 89.101 182.648 91.546 179.083 93.9681C175.61 96.5821 172.228 99.1367 168.92 101.737C162.343 107.025 155.909 112.093 148.364 116.425C145.581 116.475 143.264 115.269 140.216 115.886C140.152 118.934 146.221 116.238 148.318 117.897C146.774 120.172 144.356 122.407 142.149 124.752C141.491 125.478 140.855 126.2 140.248 126.922C140.097 126.959 139.96 127.005 139.809 127.041C136.966 127.708 133.694 128.682 132.428 131.675C132.209 132.192 131.939 132.626 131.683 133.083C129.522 134.71 127.584 136.355 125.806 138.018C125.697 138.055 125.61 138.114 125.496 138.146C125.308 138.411 125.103 138.622 124.906 138.85C124.563 139.184 124.193 139.513 123.864 139.842C121.565 141.629 118.65 141.702 115.688 141.665C114.637 141.651 114.107 142.278 113.796 143.233C113.618 143.79 113.353 144.38 112.965 144.796C112.032 145.792 111.228 147.583 109.514 145.705C107.91 146.062 107.088 147.295 106.544 148.644C105.552 151.093 104.181 152.857 101.211 152.674C100.671 152.642 99.9264 152.862 99.5791 153.241C97.5409 155.448 94.5018 156.81 93.5558 159.922C92.9389 161.951 91.3303 161.504 89.973 161.755C89.7445 162.262 89.5754 162.957 89.2235 163.062C84.722 164.415 81.3265 167.326 78.1367 170.598C76.464 172.312 74.8691 174.007 72.4653 174.994C69.2297 176.319 65.4046 177.526 66.0125 182.475C66.0901 183.115 65.0299 183.961 64.3855 184.6C63.307 185.683 62.1782 186.712 61.0083 187.69C60.4279 188.179 59.8795 189.39 58.9061 188.238C58.2526 187.47 56.6348 187 57.8824 185.455C58.2389 185.012 58.5222 184.386 58.5405 183.833C58.5542 183.302 58.184 182.759 57.9784 182.219C57.7225 182.388 57.4574 182.539 57.2152 182.722C55.2135 184.221 53.9522 186.415 54.1168 188.695C54.2036 189.897 54.5509 190.729 53.6003 191.647C52.074 193.119 50.735 194.787 48.2854 194.759C45.3698 194.727 47.504 196.377 47.2709 197.355C46.8048 199.288 45.7171 201.774 44.1359 202.592C42.4861 203.447 41.3573 204.585 40.4753 205.883C40.8318 204.128 41.2568 202.387 41.9468 200.705C45.676 190.354 54.7474 179.267 58.4537 169.017C62.9825 167.509 59.354 165.973 64.3535 162.221C63.7503 160.887 63.0191 158.387 61.543 159.109C60.8849 158.921 60.172 159.529 59.4591 160.123C57.2563 165.9 53.7603 169.204 52.3527 174.642C41.531 185.697 35.3386 198.877 30.8646 213.094C30.4716 213.163 30.0694 213.19 29.6398 213.122C29.6855 213.729 29.9872 214.159 30.4304 214.447C30.3345 214.753 30.2339 215.055 30.138 215.361C29.7404 216.727 29.3702 218.112 28.9955 219.492C28.2323 219.981 27.4599 220.461 26.5916 220.845C25.0241 221.535 23.9822 222.915 23.9411 225.068C23.8314 231.214 23.7126 231.214 18.16 234.45C17.7167 234.706 17.2094 234.843 16.7204 235.021C16.5696 236.095 15.9938 236.744 14.9199 236.89C15.0478 238.344 17.3374 239.719 14.9062 241.328C13.6677 242.146 12.5709 243.361 11.7849 244.627C11.4467 245.171 11.1268 245.678 10.7886 246.167C10.7794 245.943 10.7475 245.742 10.6743 245.582C10.5692 245.948 10.4276 246.391 10.2905 246.83C9.78776 247.429 9.19365 247.973 8.34363 248.425C6.60703 249.348 8.23852 251.021 8.96058 252.268C6.11804 255.719 9.02457 260.768 5.66562 264.077C5.62906 266.518 6.02664 269.068 5.43711 271.362C4.76989 273.944 3.44917 276.306 3.89246 279.158C4.21693 281.247 3.079 282.522 1.04535 283.134C0.698031 283.239 0.241026 284.359 0.419256 284.628C1.70343 286.575 0.86255 288.431 0.36442 290.309C2.67684 293.206 2.13301 296.684 2.01876 299.929C1.90451 303.155 2.90533 306.642 0.405545 309.581C-0.0697348 310.138 0.437536 311.4 1.3881 311.774C2.53974 312.231 3.70051 312.51 3.64567 314.119C3.60454 315.334 3.64111 316.559 3.7188 317.775C4.04784 322.825 3.01045 328.025 5.55594 332.842C5.87584 333.445 5.38685 334.565 5.09437 335.378C4.82931 336.123 3.81477 336.63 4.74705 337.622C6.16375 339.126 5.80272 341.036 5.66562 342.832C5.37314 346.657 5.42798 348.412 6.28714 349.966C7.58959 352.319 8.57671 354.856 10.8114 356.633C11.698 357.337 12.7171 358.521 12.7628 359.531C12.8908 362.296 13.4575 364.855 14.7736 367.272C14.2069 372.039 16.5331 375.946 18.553 379.936C18.8089 380.443 19.2979 381.357 19.4716 381.311C22.9859 380.379 23.5343 384.049 25.6639 385.191C27.8301 386.352 30.0603 387.385 32.2904 388.422C32.7109 389.437 33.1085 390.474 33.5106 391.516C33.369 391.841 33.4649 392.088 33.8123 392.284C34.1961 393.303 34.5572 394.363 34.9182 395.424C33.6203 396.744 32.7566 397.974 34.1184 400.318C35.5625 402.8 36.0973 405.843 36.8193 408.69C37.0615 409.645 37.3083 410.486 38.1949 410.765C39.4928 411.176 40.2331 411.469 39.3876 413.105C38.725 414.389 39.0632 416.35 38.1903 417.337C36.0607 419.759 38.8849 421.102 39.0906 422.967C39.1957 423.927 40.7541 423.844 41.3939 423.337C43.0619 422.021 44.4649 420.371 46.1238 419.037C47.7142 417.753 46.8276 416.825 46.3066 415.362C45.2875 412.497 45.8908 409.408 46.3203 406.424C46.3523 406.186 46.6951 405.989 46.8916 405.775C47.0972 405.999 47.4674 406.218 47.4811 406.451C47.6228 408.873 49.9809 409.792 50.9178 411.633C51.3565 412.497 49.1172 413.923 50.8949 414.43C53.6415 415.212 54.7337 417.09 55.6111 419.439C56.644 422.213 57.6722 424.996 58.8833 427.697C60.2268 430.686 61.7852 433.579 63.2248 436.526C63.6132 437.317 64.285 438.208 64.1799 438.962C63.7595 442.07 65.2219 444.341 67.42 446.036C69.737 447.819 69.7736 450.081 69.6913 452.558C69.641 454.052 69.4034 455.665 70.6967 456.821C73.2285 459.079 74.0739 462.365 75.8745 465.034C76.6743 466.217 76.8251 464.495 77.1541 463.905C77.4055 463.462 77.7894 463.087 78.1138 462.685C78.3012 462.927 78.6531 463.174 78.6439 463.411C78.5571 466.953 79.5671 470.481 77.6568 474.018C76.3407 476.459 77.1313 479.119 78.6988 481.687C81.2808 485.928 81.6282 486.568 85.7046 487.948C89.1138 489.099 89.717 489.721 89.813 492.897C89.8953 495.639 89.5982 498.427 92.226 500.346C92.6921 500.689 93.2679 501.31 93.2634 501.799C93.2222 506.045 96.403 508.179 98.9713 510.688C100.904 512.58 102.44 515.016 105.356 515.656C106.663 518.443 109.071 520.363 110.867 522.735C112.873 525.381 116.959 525.573 117.928 529.233C118.083 529.827 118.787 529.667 119.134 528.872C119.367 528.337 119.335 527.679 119.587 527.158C119.678 526.971 119.792 526.797 119.916 526.619C121.346 527.743 122.927 528.886 124.463 530.019C123.384 528.904 122.096 526.948 120.779 525.271C120.834 525.148 120.894 525.024 120.916 524.892C121.177 523.416 120.098 522.954 118.801 522.584C118.005 522.36 117 521.647 116.744 520.925C116.57 520.427 116.282 520.016 116.04 519.572C116.186 519.586 116.337 519.609 116.538 519.645C116.205 519.252 115.931 519.033 115.679 518.882C114.125 516.465 111.776 514.687 110.204 512.301C109.062 510.565 107.11 508.814 107.074 507.041C107.033 504.861 108.619 502.654 109.491 500.451C109.816 499.633 110.095 498.797 110.442 497.988C110.556 497.728 110.789 497.476 111.032 497.316C112.051 496.64 111.31 496.992 111.539 498.002C112.055 500.269 113.271 500.849 115.355 500.789C117.329 500.735 116.767 501.685 116.264 502.997C115.483 505.04 117.713 504.052 118.421 504.688C119.084 505.282 119.23 505.89 118.362 505.949C115.432 506.141 116.273 507.704 116.954 509.294C115.442 510.716 115.414 512.475 115.848 514.317C115.912 514.596 116.123 514.947 116.356 515.043C116.525 515.112 116.895 514.865 117.087 514.669C117.722 514.024 118.673 513.43 118.869 512.658C119.751 509.194 121.835 507.836 125.358 507.841C126.697 508.545 128 508.883 129.051 508.577C128.69 509.381 128.484 510.195 128.781 511.045C128.567 510.903 128.42 510.802 128.356 510.752C128.544 510.981 128.754 511.173 128.951 511.392C129.152 511.78 129.43 512.178 129.906 512.585C130.404 513.014 130.248 513.892 129.91 514.719C129.471 514.385 128.996 514.052 128.448 513.709C129.147 512.21 126.071 508.979 125.902 510.848C129.019 511.232 125.802 512.525 126.464 513.202C127.525 513.768 128.393 514.883 129.362 515.98C128.512 517.831 127.739 519.728 127.109 521.661C126.117 524.718 126.172 527.638 129.152 529.736C131.971 531.719 132.712 534.448 132.172 537.711C132.026 538.602 132.209 539.543 132.09 540.443C132.035 540.85 132.076 541.22 132.104 541.595C131.642 541.513 131.158 541.403 130.614 541.22C131.167 541.787 131.711 542.189 132.241 542.532C132.305 542.801 132.369 543.067 132.46 543.327C128.864 541.54 125.125 538.556 121.396 535.384C118.49 532.825 115.51 530.193 112.713 527.73C110.008 525.166 107.535 522.703 105.132 520.975C106.027 521.812 102.33 519.91 101.329 518.114C101.311 521.286 106.589 526.88 107.389 531.226C109.592 533.255 110.899 534.923 111.173 536.582C112.128 537.331 112.969 537.806 113.641 537.939C112.558 541.156 126.177 550.022 123.462 550.886C125.893 551.877 128.055 552.216 131.368 554.231C132.099 553.582 130.71 552.846 131.775 552.22C133.457 553.331 134.873 553.98 135.764 553.724C132.213 551.366 130.728 552.714 127.589 550.982C128.795 550.141 127.42 548.496 125.939 548.368C124.307 548.884 127.744 549.954 127.017 550.57C126.099 549.954 126.035 551.087 124.883 549.995C127.223 549.085 120.048 546.686 119.491 544.173C119.975 543.638 120.597 543.382 121.497 543.72C125.308 547.157 124.097 544.639 126.295 545.288C128.16 546.403 127.214 547.234 128.484 548.29C129.828 546.96 132.977 548.907 135.184 550.662C138.351 551.768 141.628 552.001 144.694 552.367C144.859 552.517 144.996 552.636 145.174 552.796C146.92 554.359 148.985 555.575 150.928 556.914C151.403 557.243 152.034 556.95 152.084 556.178C152.198 554.4 152.957 552.339 151.686 550.904C149.973 548.971 148.615 546.298 145.261 546.54C144.511 546.595 143.415 546.042 142.971 545.416C142.327 544.502 141.728 543.56 141.116 542.623C141.276 542.536 141.472 542.463 141.751 542.413C141.248 542.198 140.864 541.956 140.513 541.714C139.562 540.229 138.63 538.734 137.679 537.249C138.598 534.772 139.407 532.249 140.485 529.846C140.883 528.963 141.12 528.219 140.846 527.337C140.773 527.104 140.353 526.752 140.344 526.761C137.03 529.471 136.468 525.577 134.887 524.389C133.717 523.507 133.671 522.054 133.74 520.669C135.723 519.997 136.482 523.786 138.73 522.885C138.931 523.082 139.119 523.288 139.347 523.461C140.59 525.23 142.734 527.423 145.137 529.123C147.633 530.942 150.046 532.551 151.184 533.556C151.001 533.141 152.312 532.588 152.774 532.761C154.017 534.671 160.52 535.535 157.472 536.006C159.446 537.368 160.351 536.751 161.484 536.568C156.622 534.681 152.842 531.541 149.314 531.143C148.716 528.968 145.677 527.597 143.373 526.103C142.501 525.527 141.705 524.983 141.148 524.458C141.518 524.403 141.984 524.192 142.354 524.06C142.473 524.019 142.583 523.566 142.496 523.406C142.213 522.876 141.728 522.428 141.532 521.875C141.239 521.048 140.97 520.066 141.98 519.522C142.766 519.101 143.625 518.932 144.484 519.586C145.151 520.089 145.914 520.463 146.641 520.888C146.746 521.784 146.609 522.844 147.061 523.498C147.468 524.087 148.533 524.371 149.351 524.494C150.571 524.681 151.819 524.526 152.998 524.892C152.422 525.116 151.759 525.033 153.245 525.833C153.811 525.819 154.428 525.938 155.063 526.116C155.301 526.244 155.525 526.317 155.744 526.336C159.186 527.533 163.235 530.6 165.83 531.043C164.231 530.015 162.691 529.014 161.146 528.008C162.069 528.04 162.992 528.05 163.911 527.999C164.13 527.986 164.391 527.679 164.519 527.442C164.574 527.337 164.395 527.003 164.24 526.898C162.96 526.039 161.658 526.052 160.369 526.88C160.237 526.966 160.168 527.154 160.09 527.323C159.236 526.765 158.395 526.199 157.554 525.641C158.363 525.047 159.167 524.348 160.15 524.535C161.201 524.736 162.298 524.654 163.395 524.567C164.373 525.518 165.415 526.459 166.612 527.003C166.941 526.011 168.769 527.912 168.897 526.546C169.016 526.208 168.92 525.883 168.76 525.564C170.579 526.519 172.37 526.404 174.248 526.354C176.209 526.299 177.466 526.624 178.174 528.982C178.53 530.156 179.412 531.089 180.578 531.591C180.413 532.281 181.062 533.113 181.962 533.922C180.002 533.84 179.262 535.713 176.83 534.927C177.836 535.462 178.567 536.029 178.713 536.678C177.941 537.281 176.245 536.449 175.674 537.382C177.936 537.944 180.386 539.42 182.607 541.494C183.402 539.598 186.61 541.883 187.52 542.495C186.409 543.181 184.732 542.619 183.32 541.399C183.663 543.501 180.879 540.841 180.861 542.39C182.95 543.907 190.751 542.559 192.478 546.681C187.515 544.177 185.865 545.466 182.502 544.867C180.788 546.576 181.341 547.929 182.73 549.167L183.151 548.158C184.412 548.56 184.563 549.103 185.299 549.579C184.814 549.734 184.339 549.899 185.011 550.296C184.508 551.128 184.225 549.478 182.844 549.259C184.577 550.749 187.478 552.083 189.128 553.687C194.42 555.067 201.431 559.921 205.832 560.062C204.095 558.966 199.754 558.161 199.827 555.895C201.687 554.514 203.058 558.056 204.246 556.63C201.783 555.218 200.384 555.675 199.854 553.847C200.636 554.121 200.608 553.395 201.28 553.536C203.519 554.821 205.905 556.845 205.206 557.796C205.379 556.571 206.641 559.34 207.111 558.052C206.325 557.425 206.613 556.557 206.49 555.78C203.542 554.853 201.833 553.637 201.769 552.06C205.608 551.736 208.176 553.683 211.06 553.952C211.613 555.072 212.275 556.036 213.148 556.909C213.911 557.672 214.757 557.499 215.621 557.179C216.356 556.909 216.749 555.753 217.855 556.434C219.368 557.366 221.205 557.937 222.416 559.153C225.222 561.963 228.471 563.906 232.127 565.313C232.15 565.322 232.164 565.368 232.187 565.382C232.086 565.533 231.954 565.661 231.926 565.853C228.471 565.322 225.962 566.154 222.498 564.344C222.64 564.646 222.914 564.82 223.147 565.03C220.967 564.582 218.733 564.143 216.443 563.75C214.903 566.122 219.034 563.686 218.884 565.683C217.407 566.031 212.641 564.98 212.54 563.371C213.633 563.865 214.771 564.363 215.831 564.673C215.497 563.805 214.062 563.28 212.773 562.704C212.783 562.69 212.778 562.676 212.787 562.663C212.723 562.654 212.664 562.635 212.6 562.626C211.805 562.265 211.092 561.877 210.758 561.365C210.315 561.58 207.244 561.141 208.624 561.858C208.688 561.868 208.798 561.918 208.871 561.931C204.301 560.912 200.073 559.368 195.965 558.198C190.787 556.475 185.874 555.109 180.756 555.109C179.755 552.983 177.744 552.152 175.619 551.951C170.199 550.342 165.972 547.056 163.162 544.287C161.411 546.362 158.852 540.791 156.307 540.731C156.357 540.119 155.959 539.767 156.873 539.712C151.426 539.337 151.078 533.387 145.352 531.491C147.555 533.145 142.213 532.057 146.54 534.466C147.747 534.164 145.882 532.373 147.345 533.136C145.969 535.06 150.791 537.391 151.471 540.119C155.648 540.073 157.732 543.757 162.11 546.357C162.211 547.244 162.188 549.858 164.176 549.497C161.695 548.514 165.245 548.496 165.62 548.043C167.983 549.149 169.934 550.735 171.872 552.175C170.515 552.458 169.34 552.878 168.7 553.281C169.258 553.518 169.747 553.687 170.286 553.911C170.263 554.341 170.314 554.537 169.541 555.058C172.091 556.804 172.736 555.78 174.193 555.959C172.311 557.924 180.665 560.081 182.296 562.265C182.493 561.424 183.224 561.383 184.558 561.922C184.12 562.347 183.571 562.256 184.142 563.005C196.175 567.178 207.253 570.363 218.271 573.676C222.334 573.384 233.407 574.897 232.141 578.649C245.517 582.922 259.872 583.758 274.912 585.06C279.98 583.255 286.213 584.183 290.834 584.608C290.153 584.53 292.195 583.644 293.466 584.082C298.242 585.654 290.212 587.204 286.241 587.016C289.705 586.966 286.328 589.575 285.638 590.485C278.065 591.234 271.905 590.878 265.223 591.6C263.464 591.358 263.235 590.343 261.211 590.234C258.227 591.614 255.288 588.767 251.783 588.698C249.777 588.63 248.145 590.092 246.148 589.863C243.923 589.603 242.145 587.702 240.253 587.437C239.124 587.277 237.058 587.651 236.08 587.588C236.186 587.592 236.67 586.897 236.876 586.925C234.856 586.619 233.695 587.533 231.954 587.341C231.643 587.3 231.643 586.13 231.488 586.047C229.198 584.836 225.871 586.139 223.193 585.659C221.498 584.096 225.803 584.475 222.923 583.602C222.476 584.85 219.702 583.941 218.513 584.512C217.115 581.957 210.964 582.807 212.316 580.961C209.995 580.687 206.732 580.435 203.652 579.713C200.572 578.982 197.555 578.15 195.545 577.392C196.276 577.721 196.066 578.223 195.842 578.731C190.965 576.971 189.366 576.428 186.473 576.213C186.601 575.843 187.149 575.966 187.383 575.715C183.699 574.453 180.194 573.466 177.219 572.159C174.253 570.838 171.653 569.573 169.537 568.316C168.71 568.494 168.038 568.901 167.037 568.85C165.872 567.187 165.291 567.402 163.737 567.726C162.768 566.474 163.952 565.318 161.873 565.131C163.545 567.137 158.861 565.117 157.458 564.728C157.783 564.034 155.968 563.467 156.887 562.736C157.097 561.845 158.875 563.216 159.268 562.594C155.132 560.725 154.634 561.758 153.533 563.261C154.748 564.55 157.275 565.761 158.678 567.036C160.799 565.615 166.977 570.02 168.157 571.519C167.32 571.136 167.311 571.876 166.58 571.634C166.667 571.172 167.133 570.683 166.411 570.276C161.749 570.729 158.326 567.617 153.469 564.957C154.264 567.041 151.75 565.432 150.982 566.757C156.005 569.198 161.137 571.492 165.652 573.768C163.948 572.136 167.987 573.594 168.824 573.535C169.82 574.627 173.028 577.332 174.134 577.264C173.403 576.857 173.663 576.377 173.924 575.888C175.907 578.836 180.267 579.535 183.864 581.441C179.769 579.723 181.368 581.313 178.142 580.582C180.875 582.145 182.36 583.219 184.938 582.656L184.554 583.753C187.908 584.283 191.815 586.006 195.97 587.793C198.049 588.675 200.179 589.617 202.34 590.339C204.534 590.956 206.736 591.449 208.88 591.669C208.871 592.139 208.491 592.711 209.287 592.971C216.841 593.391 226.913 598.619 230.857 597.742C230.884 599.287 227.315 599.095 225.771 597.829C225.743 600.589 230.153 599.543 232.009 599.488C231.899 599.488 231.999 600.256 231.885 600.251C234.764 600.278 236.286 598.761 239.293 599.031C243.132 599.369 243.959 601.535 249.027 601.608C247.734 599.588 254.246 602.216 256.193 601.403C252.409 600.795 254.571 600.626 257.637 600.923C260.708 601.133 264.711 601.48 264.629 602.806C262.28 602.563 261.896 603.528 260.292 603.738C264.209 603.793 262.34 604.245 263.034 605.822C266.229 605.561 266.562 606.658 268.742 606.878C268.45 605.625 265.566 605.621 264.529 604.739C265.511 604.803 266.096 604.629 266.681 604.455C268.313 605.008 269.355 607.005 270.945 605.429C270.863 606.101 271.064 606.64 271.617 607.01C265.817 607.211 261.828 607.376 257.962 607.234C254.109 606.814 250.366 606.087 245.083 604.57C241.788 604.693 238.507 603.88 235.194 603.153C231.871 602.422 228.503 601.878 224.984 602.015C225.048 601.284 222.704 601.197 223.097 600.374C214.08 599.287 205.672 593.286 197.903 593.798C199.804 594.593 202.719 594.954 202.541 596.024C200.348 595.521 190.362 593.245 193.346 591.394C191.646 591.052 190.065 590.837 187.78 589.845C186.217 591.024 191.29 591.152 190.833 592.158C187.689 591.248 180.518 589.466 178.933 586.655C172.653 584.599 167.466 582.003 162.746 579.75C158.066 577.419 154.026 575.034 150.649 572.191C149.365 573.777 149.744 570.784 148.423 570.212C146.614 569.733 148.14 572.237 146.924 571.579C146.298 571.218 146.038 571.428 145.494 571.195C142.926 570.094 143.716 569.065 142.304 567.987C141.034 568.494 138.136 566.369 135.723 564.998C136.701 562.187 131.318 561.123 128.905 559.537C123.86 556.48 118.741 551.873 113.659 547.797C108.683 543.578 103.72 539.867 100.233 536.815C105.095 542.408 107.81 542.87 111.575 547.979C115.478 549.89 119.271 552.878 123.11 556.036C127.036 559.052 131.19 561.996 135.298 564.29C134.722 565.071 135.678 565.912 135.582 566.712C134.562 566.776 132.926 565.83 131.884 565.857C133.9 568.042 141.71 569.897 144.703 574.316C145.631 573.421 147.345 575.185 148.757 576.003C152.056 574.696 161.786 579.503 165.332 581.733C164.898 582.341 159.336 578.982 161.073 580.6C163.034 581.532 165.095 582.442 164.569 583.52C163.317 583.182 160.877 581.272 160.442 582.021C162.325 583.538 166.927 584.882 164.848 586.637C167.54 588.2 164.51 584.855 167.439 586.13C167.471 586.472 167.827 586.801 168.627 587.099C168.815 589.146 166.708 588.282 165.593 588.689C168.216 591.033 168.993 589.63 169.381 589.15C171.09 591.065 167.073 589.713 168.527 591.312C171.15 593.282 174.349 594.456 175.866 595.014C175.103 594.648 174.92 594.209 174.737 593.775C175.903 594.452 178.019 593.771 178.229 595.05C177.388 594.804 176.264 594.26 175.999 594.648C179.545 597.084 186.231 598.473 188.027 601.023C189.905 601.138 187.108 599.465 189.192 599.794C193.383 600.681 192.441 602.358 195.101 603.477C195.64 603.066 194.832 601.27 196.34 601.855C198.753 602.961 203.41 603.135 202.482 604.807C201.645 604.885 196.884 603.697 198.661 604.611C202.925 604.958 205.557 606.516 207.724 605.356C210.52 606.548 206.704 607.252 209.36 608.166C210.42 608.194 209.807 606.745 211.16 607.024C211.955 607.956 219.295 611.438 216.068 609.034C219.071 610.131 219.683 610.223 224.002 611.333C224.23 610.794 224.002 609.866 225.003 609.98C230.967 611.968 236.784 612.553 242.36 613.298C247.953 613.924 253.346 614.66 258.77 615.679C259.104 615.03 257.742 614.624 258.848 614.523C262.943 615.364 266.338 616.082 269.195 614.66C269.204 615.195 268.82 615.496 268.413 615.789C271.47 615.227 275.332 616.251 278.038 616.964C275.977 618.43 272.174 616.95 271.292 619.408C276.502 619.408 278.769 616.287 284.714 617.187C285.711 616.333 282.786 615.675 284.682 615.638C286.94 616.168 287.571 616.081 289.102 615.295C289.092 616.616 291.318 616.639 292.872 617.059C298.68 615.337 304.548 617.64 309.794 614.939C312.756 614.989 316.055 615.008 319.469 614.752C322.878 614.349 326.416 613.828 329.861 613.216C336.753 611.996 343.27 610.424 347.748 608.87C348.621 609.747 351.866 608.303 351.816 609.903C355.59 607.49 358.492 609.199 360.992 606.745C360.096 606.932 359.256 607.079 359.347 606.375C360.979 605.607 361.18 605.639 364.255 604.675C364.497 605.241 364.539 605.991 366.024 605.406C367.61 602.394 374.04 603.208 377.604 602.618C377.568 601.832 376.389 602.157 375.799 601.919C378.523 600.996 383.413 598.757 384.742 600.466C383.093 601.512 381.731 599.794 381.109 601.375C382.128 601.115 382.197 601.887 382.901 601.956C389.779 597.116 400.44 593.821 405.463 592.194C407.263 591.495 407.538 589.891 408.324 589.553C410.44 588.634 412.843 589.393 416.17 587.057C415.558 587.492 417.126 586.632 418.839 585.75C419.506 585.417 426.064 581.253 428.519 581.788C429.282 582.496 423.583 584.877 425.758 584.475C428.094 583.155 428.683 582.346 431.091 581.788C430.337 581.048 431.005 580.257 432.056 579.668C433.075 579.019 434.46 578.53 435.236 578.557C433.546 580.344 430.607 581.925 430.333 583.479C434.263 580.975 440.592 574.769 441.963 578.1C441.767 577.762 442.827 577.003 443.248 577.314C441.141 579.727 442.631 579.8 440.812 581.976C444.116 578.023 448.128 576.172 451.963 574.175C455.733 572.113 459.553 570.221 461.56 565.555C462.135 566.044 461.386 566.748 461.875 567.251C463.781 565.889 462.876 564.993 465.641 563.481C465.947 564.166 466.838 563.654 467.185 564.262C468.666 562.964 470.375 561.612 470.928 560.469C468.364 562.622 466.724 562.836 465.536 562.105C469.895 559.56 470.727 556.713 475.571 555.451C472.953 556.982 474.511 557.727 471.879 559.253C473.03 559.523 473.606 561.022 475.74 559.226C475.48 558.701 474.625 558.285 475.361 557.567C476.01 559.18 484.41 553.751 487.494 550.804C487.129 549.181 485.36 551.242 484.821 550.086C485.776 549.821 487.092 548.628 488.436 547.339C487.906 549.099 488.189 548.674 489.441 549.565C491.479 548.18 489.35 547.924 490.904 546.668C491.831 547.815 494.395 544.561 495.592 545.004C497.146 541.81 498.595 541.924 498.933 542.966C500.318 540.224 501.41 539.717 502.018 537.441C503.485 537.121 502.319 537.838 503.124 538.528C505.217 536.006 505.103 536.362 507.282 535.128C507.831 534.032 507.813 533.058 508.279 531.893C509.773 531.431 510.564 529.786 509.645 532.121C515.911 526.432 514.444 521.437 517.798 519.06C515.943 516.848 519.078 515.007 521.696 513.48C521.683 512.15 519.283 514.02 520.485 512.502C522.487 511.46 523.648 510.158 525.147 507.594C526.513 507.832 525.38 509.271 525.768 509.98C526.275 508.252 528.304 506.767 528.195 506.132C527.368 506.872 526.604 507.238 525.905 507.238C526.984 505.826 526.71 505.067 528.309 503.399L529.246 504.089C531.353 497.746 538.162 491.691 538.322 488.441C539.437 486.307 540.072 487.728 541.05 486.636C540.621 486.321 540.127 486.458 539.638 486.613C540.127 484.758 547.083 478.671 542.915 481.6C544.898 478.661 546.749 478.529 547.083 476.23C546.077 477.674 545.277 477.195 546.082 475.645C546.018 476.852 546.845 476.76 547.86 474.941C547.654 473.996 548.335 472.501 548.778 471.144C548.659 473.401 551.155 468.521 551.406 467.465C551.036 467.927 550.647 468.731 550.304 468.566C550.931 467.2 552.27 463.338 553.709 462.758C553.956 463.407 552.306 465.276 552.882 465.71C554.769 463.846 554.107 462.58 555.213 460.171C557.932 460.249 556.968 452.727 559.933 453.307C557.941 455.688 557.68 458.32 557.251 460.551C556.757 462.744 556.223 464.604 553.951 465.431C555.811 466.578 553.376 468.151 552.251 471.368C553.764 471.212 552.466 472.849 552.827 473.42C554.888 470.559 553.558 471.35 553.7 470.436C554.422 470.024 555.222 468.086 555.875 469.032C555.473 469.832 554.724 470.861 555.057 471.19C556.383 468.333 557.607 467.182 558.782 467.131C559.385 465.185 560.313 463.759 561.474 461.817C562.547 459.829 563.905 457.342 565.472 453.399C565.472 451.822 563.937 453.833 564.727 451.374C570.55 443.098 571.459 433.688 574.64 426.746C574.068 424.895 572.067 427.295 573.228 423.84C574.379 422.268 574.946 423.022 575.682 423.895C576.591 416.871 580.306 413.365 582.336 406.113C580.06 402.256 585.695 392.979 584.246 387.897C583.944 391.397 582.852 395.785 581.111 397.192C580.462 394.112 582.139 385.543 584.429 387.161C584.058 382.888 587.783 380.036 585.772 378.249C588.569 377.925 589.826 369.411 589.716 364.453C589.725 365.188 590.315 363.415 590.539 361.519C591.119 356.569 591.951 351.067 592.527 345.629C592.746 341.365 592.719 337.142 592.362 333.267C592.792 333.249 593.244 333.294 593.756 333.486C593.413 328.816 593.098 324.214 592.773 319.635C592.869 319.712 592.979 319.767 593.166 319.676C592.518 317.404 592.714 316.554 592.394 314.429C592.28 312.885 592.152 311.345 592.029 309.809C592.801 307.881 593.418 304.394 593.564 302.465C593.646 303.95 594.67 303.347 594.487 305.413C593.925 308.685 594.158 312.775 595.625 315.147C595.365 316.714 594.976 316.742 594.442 315.915C595.415 324.698 594.172 331.229 595.826 339.277C594.487 337.266 594.474 346.648 595.913 344.582C594.807 349.664 593.678 356.163 593.061 362.611C592.741 365.833 592.522 369.041 592.449 372.053C592.412 373.556 592.412 375.014 592.454 376.399C592.408 377.765 592.403 379.063 592.458 380.265C592.952 376.531 595.164 369.95 594.094 366.587C595.515 368.561 594.857 363.287 594.268 362.762L595.42 362.908C598.271 346.621 598.513 329.35 598.701 312.697ZM489.396 101.385C490.725 100.75 491.566 102.742 492.06 103.798C491.315 104.342 489.574 101.847 489.396 101.385ZM168.888 571.821C169.029 569.787 172.215 572.753 172.507 572.219C174.107 573.699 170.528 572.863 168.888 571.821ZM191.039 584.818C192.003 582.816 193.191 585.476 195.837 586.089C195.289 586.815 192.492 585.083 191.039 584.818ZM196.587 578.964C196.911 577.959 199.923 579.16 200.604 579.956C200.284 580.746 197.798 579.156 196.587 578.964ZM244.466 598.61C245.124 598.4 246.098 598.428 247.313 598.624C247.186 599.168 247.067 599.703 247.88 599.881C247.231 600.69 243.479 599.634 244.466 598.61ZM266.855 602.924C266.384 601.841 268.294 602.211 268.335 601.444C262.769 600.096 256.938 600.914 255.183 597.756C259.991 599.109 261.956 598.035 265.708 597.44C266.617 597.875 267.019 598.551 268.441 598.738C267.353 599.588 266.704 599.25 264.931 598.958C265.452 600.457 267.321 601.316 270.451 601.549C270.895 602.993 269.268 603.203 266.855 602.924ZM569.485 388.317C570.335 388.395 569.037 390.826 568.987 391.891C568.754 391.507 568.525 391.114 568.425 390.584C568.694 389.962 568.959 389.341 569.215 388.715C569.297 388.687 569.389 388.596 569.485 388.317ZM563.242 438.372C561.67 440.996 562.109 440.671 560.729 443.76C559.6 444.633 558.398 443.372 559.897 440.982C561.076 443.925 561.099 437.911 563.242 438.372ZM375.781 581.934C375.575 582.894 372.202 583.511 370.653 584.096C371.279 582.003 373.052 582.798 375.781 581.934ZM339.545 598.135C335.61 598.501 333.782 597.929 329.404 597.833C331.433 595.795 335.569 596.691 339.682 595.356C339.655 596.289 338.887 596.97 339.545 598.135ZM318.094 598.396C317.568 599.721 315.717 598.45 315.26 598.281C314.931 597.399 317.212 597.71 317.202 596.965C319.638 596.709 315.64 598.651 318.094 598.396ZM326.553 597.893C326.228 598.853 324.4 599.273 324.067 600.237C322.952 599.236 318.048 601.115 317.55 599.648C320.763 600.324 322.865 597.61 326.553 597.893ZM321.334 592.359C319.117 592.884 317.07 593.634 313.364 594.141C311.76 592.153 314.968 591.458 318.985 590.453C323.016 589.53 327.924 588.881 329.843 588.346C332.85 588.904 333.696 590.366 329.706 591.509C329.793 591.18 330.328 591.02 330.25 590.64C325.927 591.312 323.55 591.801 321.334 592.359ZM314.602 598.715C309.548 600.027 297.693 600.091 300.517 598.057C304.132 599.488 308.753 597.509 314.602 598.715ZM333.586 589.703C333.179 588.734 334.806 588.492 336.063 588.113C336.227 589.141 334.875 590.197 333.586 589.703ZM338.727 577.959C334.02 578.667 329.267 579.11 325.607 579.613C324.03 580.257 326.411 581.226 327.828 580.824C327.352 582.007 325.026 581.162 323.898 581.45C323.71 580.774 324.565 580.513 324.304 579.818C323.888 579.005 321.073 580.166 319.689 580.143C323.852 577.602 328.207 576.688 333.234 576.076C335.752 575.806 338.426 575.523 341.3 575.212C344.147 574.741 347.173 574.033 350.422 573.119C350.513 573.658 350.605 574.197 351.363 574.069C349.686 574.951 347.703 575.724 345.555 576.409C344.481 576.752 343.366 577.072 342.232 577.373C341.072 577.565 339.897 577.762 338.727 577.959ZM183.32 531.916C183.589 531.865 183.918 531.916 184.17 532.035L184.174 532.039C184.147 532.131 184.156 532.217 184.092 532.318C183.228 532.153 182.813 532.035 182.589 531.925C182.835 531.916 183.059 531.966 183.32 531.916ZM146.586 516.341C146.385 516.519 146.184 516.698 145.983 516.88C145.8 516.789 145.613 516.693 145.43 516.602C145.53 516.465 145.626 516.323 145.727 516.181C145.828 516.044 145.923 515.902 146.024 515.761C146.211 515.953 146.399 516.145 146.586 516.341ZM263.583 89.3661C263.094 89.8505 262.321 90.1384 261.097 90.2389C260.923 90.2526 260.745 90.2435 260.566 90.248C260.05 90.0698 259.223 90.1841 258.441 90.2755C260.064 89.4026 261.8 89.2153 263.583 89.3661ZM582.18 242.42C582.674 244.129 582.285 244.86 581.833 245.518C581.289 243.48 581.138 241.309 580.494 239.28C580.517 238.883 580.572 238.517 580.668 238.206C581.938 242.539 580.233 242.169 582.18 242.42ZM583.112 246.035C583.355 247.36 583.56 248.343 583.761 249.174C583.665 249.147 583.606 249.088 583.501 249.065C583.227 248.717 583.003 248.352 582.797 247.986C582.445 246.825 582.185 245.77 583.112 246.035ZM580.622 342.795C580.7 341.781 580.512 341.187 580.188 340.807C580.316 339.107 580.544 337.531 580.923 336.329C581.184 336.8 581.431 337.298 581.668 337.805C581.764 337.11 581.504 336.105 581.412 335.209C581.467 335.109 581.508 334.962 581.568 334.871C581.504 334.679 581.472 334.442 581.412 334.24C581.476 333.916 581.609 333.646 581.879 333.482C581.979 334.857 582.925 334.825 582.482 337.119C579.859 339.935 581.563 338.367 580.622 342.795ZM340.473 93.2917C340.025 93.3694 339.783 93.2643 339.632 93.0815C339.929 93.0038 340.231 92.9352 340.528 92.8621C340.537 93.0312 340.514 93.2825 340.473 93.2917ZM526.742 167.102C525.572 167.015 524.534 166.713 524.457 165.233C524.457 165.21 524.457 165.182 524.457 165.16C525.256 165.754 526.029 166.384 526.742 167.102ZM579.895 320.448C579.804 319.287 579.712 318.117 579.612 316.947C579.644 316.847 579.69 316.756 579.722 316.655C579.991 315.773 580.786 315.042 581.522 314.315C581.531 315.526 581.545 316.728 581.554 317.907C581.627 320.553 581.824 323.112 582.217 325.553C581.604 325.617 580.878 325.439 580.992 326.979C581.568 327.111 582.432 326.741 582.514 327.724C582.244 329.885 581.76 331.622 581.093 332.979C580.293 329.465 580.069 325.068 579.895 320.448ZM581.326 310.198C581.335 310.394 581.348 310.591 581.358 310.787C581.275 310.591 581.275 310.394 581.326 310.198ZM543.381 185.149C542.526 184.226 542.673 182.955 543.788 182.096C543.865 182.037 543.98 182.023 544.089 182.005C545.369 183.567 546.562 185.35 547.677 187.356C546.068 187.653 545.149 187.05 543.381 185.149ZM542.101 179.811C540.771 179.432 539.894 178.563 539.432 177.247C540.346 178.024 541.238 178.888 542.101 179.811ZM580.147 341.466C580.284 342.348 580.229 343.289 580.064 344.267C580.064 343.326 580.092 342.393 580.147 341.466ZM588.788 274.25C588.985 273.683 589.264 273.121 589.556 272.559C589.584 273.802 589.419 274.849 588.93 275.233C588.903 274.926 588.834 274.574 588.788 274.25ZM587.893 267.075C587.906 266.833 587.874 266.527 587.92 266.326C588.181 266.623 588.432 267.157 588.66 267.779C588.437 267.61 588.181 267.372 587.893 267.075ZM585.562 259.201C584.616 261.299 585.973 263.817 586.682 263.533C586.572 264.47 586.33 264.808 586.01 264.854C585.69 264.438 585.379 264.027 585.078 263.611C585.009 263.341 584.959 263.076 584.886 262.802C584.506 262.345 584.109 261.948 583.702 261.573C583.451 261.166 583.245 260.805 583.163 260.59C582.861 259.818 583.748 258.785 584.721 258.876C584.968 258.899 585.215 258.968 585.457 259.041C585.493 259.096 585.521 259.151 585.562 259.201ZM580.137 238.325C580.11 238.257 580.092 238.184 580.06 238.115C579.927 237.813 579.923 237.557 579.968 237.311C580.028 237.658 580.087 237.996 580.137 238.325ZM268.011 90.2892C267.572 90.2572 267.179 90.1475 266.837 89.9556C267.23 90.0607 267.618 90.1704 268.011 90.2892ZM360.828 582.771C361.39 584.43 358.776 583.145 356.952 584.21C357.629 583.036 359.055 582.94 360.828 582.771ZM510.577 510.985C511.327 512.265 508.585 513.11 506.981 515.596C506.515 515.071 505.77 515.72 505.327 515.116C507.123 513.581 508.946 511.881 510.577 510.985ZM514.133 506.369C514.517 506.767 514.905 507.151 515.518 506.557C516.395 507.265 513.502 510.24 512.433 510.642C511.921 509.628 512.593 508.17 514.133 506.369ZM570.7 384.771C570.828 384.858 570.993 384.908 571.107 385.009C570.659 386.06 570.472 386.16 570.253 385.996C570.403 385.584 570.559 385.182 570.7 384.771ZM579.118 355.751C579.068 355.176 579.013 354.609 578.922 354.106C579.137 353.887 579.37 353.718 579.616 353.585C579.571 354.266 579.374 354.997 579.118 355.751ZM580.521 351.049C580.37 350.139 580.252 348.956 580.169 347.672C580.402 346.63 580.677 345.647 581.289 344.29C581.102 347.512 580.8 348.595 580.919 350.971C580.786 351.008 580.658 351.058 580.521 351.049ZM589.766 287.649C590.146 285.885 590.246 284.066 589.931 281.873C592.061 282.723 591.174 287.873 590.063 289.683C589.972 289.007 589.862 288.326 589.766 287.649ZM589.163 276.709C589.849 277.536 590.269 279.14 590.589 281.027C589.227 281.859 588.743 277.924 589.163 276.709ZM583.67 240.459L582.176 240.875C581.613 239.655 582.473 237.562 581.216 237.265C580.942 234.765 582.167 237.859 582.528 237.663C582.719 236.712 582.212 236.136 581.577 235.442C581.842 235.222 582.084 234.989 582.294 234.742C583.268 236.282 583.949 238.138 583.67 240.459ZM580.718 228.029C580.211 227.97 579.959 226.653 579.653 225.621C579.694 225.616 579.731 225.625 579.772 225.621C580.133 225.584 580.434 225.301 580.677 224.958C581.668 227.014 580.558 226.859 580.718 228.029ZM574.429 220.836C574.58 220.735 574.932 220.795 575.11 220.914C576.422 221.773 577.313 222.874 577.633 224.506C577.784 225.264 578.424 225.57 579.159 225.621C579.283 226.206 579.388 226.859 579.411 227.668C579.041 227.778 579.132 228.39 578.867 228.623C577.912 225.282 576.075 226.452 578.3 228.029C578.392 228.491 578.474 228.957 578.565 229.423C577.331 229.391 576.102 229.359 574.877 229.222C574.53 229.185 573.94 228.248 574.032 227.86C574.288 226.777 575.325 225.671 575.152 224.743C574.96 223.706 573.625 222.906 573.913 221.544C573.972 221.279 574.196 220.987 574.429 220.836ZM561.4 196.642C560.948 196.418 560.5 196.217 560.029 196.469C559.742 195.797 559.449 195.226 559.152 194.714C559.074 194.243 559.029 193.768 558.992 193.292C559.741 194.334 560.619 195.555 561.4 196.642ZM511.647 128.476C511.93 128.81 512.227 129.157 512.511 129.495C512.451 129.605 512.419 129.724 512.337 129.824C510.733 129.504 509.979 127.388 509.015 125.391C509.869 126.429 510.728 127.462 511.647 128.476ZM485.141 120.003C485.283 120.095 485.374 120.268 485.456 120.46C485.141 120.342 484.821 120.204 484.506 120.076C484.634 119.907 484.88 119.839 485.141 120.003ZM253.117 91.0021C253.131 91.3083 253.14 91.6191 253.149 91.9344C253.89 91.9298 254.333 91.5323 254.594 90.9747C255.823 90.9793 257.075 91.0204 258.364 91.0524C257.898 92.0441 256.988 92.6884 256.106 93.2734C254.626 94.2514 253.602 93.6619 253.085 92.1081C252.56 92.2863 252.011 92.4097 251.527 92.661C249.128 93.8995 248.255 93.8675 246.962 92.2132C246.916 92.1538 246.888 92.0806 246.843 92.0212C248.922 91.3266 250.997 91.0615 253.117 91.0021ZM235.285 93.8081C237.41 93.4014 239.412 93.2323 241.208 93.2186C240.751 93.6116 240.152 93.8858 239.193 93.8629C238.617 93.8492 237.771 93.8812 237.493 94.2377C235.436 96.8608 232.132 94.6764 229.861 96.3262C228.27 97.4824 227.365 96.8929 226.579 95.988C229.49 95.01 232.498 94.3154 235.285 93.8081ZM83.2962 461.579C83.0449 461.524 82.7889 460.656 82.8529 460.212C82.8849 459.979 83.0174 459.755 83.1728 459.541C83.3282 459.326 83.511 459.111 83.6527 458.892C83.8903 459.335 84.2605 459.76 84.329 460.231C84.4387 460.948 84.3564 461.812 83.2962 461.579ZM91.6867 484.557C91.5862 484.954 91.0606 485.247 90.7316 485.585C90.5351 485.37 90.2015 485.174 90.1741 484.936C90.0781 484.123 90.0735 483.3 90.0415 482.477C89.9958 482.477 89.9684 482.464 89.9227 482.464C89.9181 482.404 89.909 482.345 89.9044 482.281C89.4931 482.094 89.0773 481.92 88.6979 481.682C88.6294 481.641 88.7299 481.102 88.7939 481.093C89.7902 480.951 89.8496 481.618 89.9044 482.281C89.9501 482.299 89.9912 482.327 90.0369 482.345C90.0369 482.391 90.037 482.432 90.0415 482.477C91.376 482.509 92.034 483.177 91.6867 484.557ZM97.2027 489.593C96.7366 489.314 96.2704 489.04 95.8043 488.761C96.3024 488.505 96.8051 488.035 97.2941 488.053C97.7922 488.071 98.2767 488.569 98.7656 488.857C98.2447 489.104 97.7237 489.346 97.2027 489.593ZM100.886 493.528C100.84 494.2 100.79 494.88 99.7619 494.711C99.6934 494.702 99.5974 494.154 99.6659 494.108C100.054 493.875 100.475 493.706 100.886 493.528C100.891 493.464 100.895 493.4 100.904 493.336C100.95 493.34 100.982 493.322 101.028 493.327C100.978 492.234 100.85 491.128 101.768 490.256C102.307 489.748 104.099 489.767 104.067 490.274C104.039 490.731 103.898 491.266 103.614 491.604C102.929 492.413 102.321 493.432 101.028 493.322C101.028 493.368 101.032 493.409 101.032 493.455C100.982 493.478 100.936 493.505 100.886 493.528ZM108.143 495.219C106.855 498.153 104.172 500.392 103.875 503.851C103.861 504.025 102.787 504.313 102.317 504.18C101.864 504.052 101.165 503.339 101.238 503.052C102.106 499.601 103.628 496.43 105.758 493.583C105.941 493.336 106.877 493.583 107.44 493.72C107.449 493.724 107.458 493.738 107.467 493.743C107.622 493.88 107.75 494.017 107.91 494.154C107.965 494.222 108.015 494.296 108.075 494.355C108.102 494.643 108.248 494.986 108.143 495.219ZM135.508 517.918C135.207 518.59 134.736 518.864 134.06 518.635C134.252 518.027 134.626 517.534 135.499 517.392C137.067 517.141 137.729 518.114 137.565 519.49C137.547 519.654 137.602 519.769 137.597 519.924C137.094 519.408 136.5 518.768 135.508 517.918ZM146.911 520.77C146.888 520.834 146.874 520.902 146.851 520.961L146.719 520.834C146.778 520.806 146.847 520.792 146.911 520.77C146.952 520.637 146.993 520.504 147.034 520.367C147.157 520.445 147.29 520.523 147.413 520.596C147.249 520.655 147.075 520.71 146.911 520.77ZM208.688 568.928C203.039 566.323 197.482 563.737 190.773 562.503C188.566 561.484 186.446 560.103 184.083 558.6C183.836 558.426 183.571 558.257 183.32 558.084C184.366 558.326 185.408 558.559 186.418 558.755C188.941 559.299 191.34 559.838 193.785 560.574C196.262 561.232 198.803 562.041 201.568 563.266C206.179 561.2 212.714 569.408 217.106 568.777C215.365 565.981 222.768 568.252 227.032 568.759C226.351 569.979 226.835 571.593 227.123 573.841C220.332 573.224 214.46 571.067 208.688 568.928ZM294.188 583.278C295.55 582.423 296.395 584.169 298.854 583.794C298.808 583.42 298.018 583.543 297.506 583.484C297.62 582.921 299.466 583.237 299.434 582.597C298.676 581.761 295.285 582.679 293.489 582.533C296.18 580.591 302.885 580.755 305.106 579.535C306.184 580.294 305.755 581.61 305.316 581.852C306.029 583.118 306.792 581.806 308.026 582.46C309.813 581.843 305.873 581.797 306.522 580.614C311.559 580.262 312.738 580.682 314.927 579.275C317.065 579.59 314.904 579.942 318.866 579.092C319.565 581.688 314.776 580.358 313.199 581.331C315.626 582.99 321.489 578.712 321.864 581.372C319.807 581.578 317.65 582.035 315.411 582.506C313.163 582.835 310.818 583.182 308.465 583.529C303.73 584.151 298.813 584.448 294.188 583.278ZM295.682 599.095C295.043 600.297 297.277 599.703 298.525 599.716C296.24 600.342 292.502 600.525 288.32 600.681C284.139 600.562 279.518 600.324 275.405 600.585C280.304 597.719 288.284 600.448 295.682 599.095ZM273.271 601.663C277.247 602.289 278.22 602.042 282.448 602.394C278.476 600.429 291.249 601.448 292.323 602.367C289.006 603.459 285.039 603.221 281.333 603.011C277.626 602.824 274.181 602.664 271.8 603.537C271.233 602.275 272.956 602.39 273.271 601.663ZM271.055 605.059C271.658 603.724 273.554 604.716 274.624 605.209C274.418 606.105 271.475 605.296 271.055 605.059ZM319.277 607.22L319.117 606.005C318.793 606.082 318.491 606.155 318.158 606.238C316.599 606.498 314.986 606.713 313.323 606.932C310 607.357 306.49 607.709 302.889 607.956C295.692 608.381 288.142 608.751 281.054 607.389C280.272 607.458 280.565 608.143 279.614 608.121C277.937 607.929 276.639 607.54 275.305 607.175C275.488 605.982 278.878 606.663 281.054 606.617C281.109 606.064 281.159 605.525 280.332 605.429C287.287 605.264 299.827 605.305 310.078 602.518C312.418 602.783 314.634 603.125 315.969 604.049C318.007 603.573 315.393 602.842 315.736 602.129C317.5 601.75 319.177 603.285 320.013 602.029C322.115 602.056 320.895 602.481 320.936 603.454C324.437 602.339 326.964 601.467 329.304 601.38C329.807 599.986 327.01 601.133 325.648 601.169C327.645 599.488 332.663 599.227 334.797 599.712C335.61 601.074 331.959 602.755 336.017 602.257C333.124 604.113 324.56 602.778 323.299 604.666C328.856 604.789 338.192 601.882 341.469 603.701C334.157 606.658 327.348 605.465 319.277 607.22ZM351.93 597.929C351.852 597.235 350.883 597.358 350.861 596.604C353.516 595.53 353.228 597.194 355.888 596.101C355.362 596.906 353.059 597.276 351.93 597.929ZM370.703 590.914C362.249 592.24 354.964 594.442 346.354 596.152C346.624 596.819 348.735 595.791 349.288 596.206C349.476 597.418 345.239 598.002 345.057 596.796C343.261 597.902 343.183 598.245 344.252 599.684C341.067 598.875 340.4 597.875 341.524 596.979C342.648 596.047 345.591 595.402 349.604 594.529C348.882 594.123 347.273 594.548 346.007 594.648C345.395 593.542 349.065 593.57 349.142 592.651C350.093 592.532 349.947 593.451 350.198 593.976C356.742 591.879 357.185 591.572 364.31 589.452C365.654 590.617 367.76 588.515 369.543 589.626C371.288 588.78 367.207 589.374 369.058 588.154C373.925 587.167 373.793 588.236 378.678 585.823C378.418 584.754 374.501 587.848 374.981 585.938C378.235 585.408 380.524 584.197 382.755 582.67C383.285 583.433 383.18 584.101 382.787 584.722C384.573 584.183 384.765 583.415 384.212 582.538C387.402 580.902 388.522 581.683 390.062 581.989C387.585 585.915 374.666 587.898 370.703 590.914ZM434.217 573.813C434.126 571.794 437.019 571.638 438.6 569.778C439.189 570.994 435.533 572.484 434.217 573.813ZM454.389 569.531C453.201 572.379 453.311 568.992 451.414 570.491C451.309 569.934 452.817 569.23 453.727 568.581C453.983 569.065 454.243 569.554 455.025 569.134C455.152 569.568 454.508 569.71 454.389 569.531ZM452.086 563.654L454.563 562.078L455.239 563.024C453.96 563.65 452.484 564.61 452.086 563.654ZM454.961 561.365C454.453 560.519 456.473 559.295 458.027 558.134L458.722 559.066C457.296 560.186 455.916 561.228 454.961 561.365ZM453.914 559.509C450.08 562.155 446.163 564.623 444.185 566.328C444.431 564.747 447.703 562.238 451.652 559.564C455.555 556.827 459.878 553.523 462.775 551.174C461.167 553.564 457.575 556.617 453.914 559.509ZM481.096 553.715C479.748 552.865 479.565 552.883 479.917 551.187C481.325 551.101 483.537 551.749 481.096 553.715ZM483.295 550.516C482.659 550.52 481.677 551.274 481.348 550.561C482.033 550.333 482.714 550.095 482.531 549.643C483.199 549.167 483.418 549.876 484.163 549.213C484.071 549.716 483.998 550.214 484.369 550.593C483.651 551.082 482.449 551.293 483.295 550.516ZM493.774 545.196C493.586 544.652 494.957 543.67 495.743 542.852C495.336 542.614 494.505 543.556 493.801 544.113C492.773 544.077 494.573 541.645 492.732 542.989C492.86 542.052 495.839 541.828 496.854 541.819C494.975 543.743 496.228 543.862 493.774 545.196ZM507.008 522.497L507.872 523.274L505.368 526.02C504.326 525.435 506.414 523.699 507.008 522.497ZM511.112 527.2C511.583 525.426 510.367 526.788 509.015 528.351C508.475 526.628 512.296 525.088 513.872 523.571C514.453 524.215 511.843 526.066 511.112 527.2ZM513.356 517.187C512.844 520.486 511.976 523.48 507.017 526.523C507.497 524.362 512.076 521.423 510.491 518.644C515.106 514.445 517.926 510.272 520.435 508.577C520.371 511.62 516.249 516.044 513.356 517.187ZM526.554 502.019C524.009 504.889 522.592 505.602 521.532 508.499L520.001 507.302C523.031 504.519 525.343 499.615 528.844 496.334C528.889 498.532 525.91 499.976 526.554 502.019ZM556.972 454.331C555.67 454.299 556.506 452.681 555.204 452.649C556.332 451.941 557.338 448.047 558.54 449.304C557.735 447.759 560.523 444.926 561.725 442.572C559.39 446.955 559.12 451.278 556.972 454.331ZM557.475 467.259C556.908 466.912 556.305 467.278 555.688 468.013C554.993 467.52 555.912 465.984 556.908 464.385C556.949 465.893 557.863 464.248 557.9 465.765C558.777 464.604 559.728 461.556 560.496 462.822C559.536 463.439 558.503 465.514 557.475 467.259ZM561.547 459.093C561.423 456.744 562.538 456.291 563.868 454.294C564.001 456.625 562.881 457.105 561.547 459.093ZM564.225 431.595C563.973 430.827 564.161 429.584 564.846 427.889C565.952 428.131 565.262 430.868 564.225 431.595ZM563.599 421.185C563.548 419.238 564.581 418.561 565.203 415.582C566.304 416.002 564.449 420.362 563.599 421.185ZM567.456 405.647C568.53 406.634 566.409 408.37 566.528 410.669C564.933 410.779 567.191 407.292 567.456 405.647ZM567.277 417.821C566.866 415.088 567.419 413.795 568.118 409.645C568.351 410.829 567.689 414.668 569.357 410.792C570.618 412.246 567.981 415.248 567.277 417.821ZM572.821 386.133C571.326 393.235 571.989 395.926 571.861 399.363C571.55 401.017 570.586 399.847 570.184 401.168C572.222 400.501 570.819 405.839 569.841 409.412C568.616 408.777 567.945 408.786 567.858 408.041C568.543 407.443 569.092 404.92 568.909 403.814C567.506 405.56 568.26 401.396 567.369 401.131C567.995 399.76 568.351 399.82 568.69 400.752C569.188 395.36 571.811 389.158 572.208 383.779C572.629 383.976 572.757 385.219 573.337 384.026C571.729 384.826 573.689 381.595 572.711 381.677C572.186 382.463 571.898 382.203 571.724 381.581C572.263 379.94 572.812 378.304 573.269 376.6C574.69 376.115 572.579 379.684 573.598 379.662C574.174 376.508 576.948 371.71 575.577 370.508C574.731 373.625 574.813 374.955 573.328 376.399C573.351 376.307 573.387 376.22 573.41 376.129C574.036 373.382 574.562 370.554 574.95 367.62C575.549 367.624 576.061 367.336 576.532 366.934C576.523 366.962 576.513 366.98 576.504 367.007C577.606 368.579 577.35 370.586 576.916 372.647C576.408 374.699 575.577 376.773 575.828 378.62C574.886 380.279 574.352 380.077 573.803 380.439C574.79 381.869 573.57 388.495 573.068 389.912C571.811 389.972 573.607 386.613 572.821 386.133ZM572.757 422.048C573.973 419.617 573.15 418.365 574.525 417.108C576.408 416.788 574.032 423.429 572.757 422.048ZM574.658 415.573C576.262 414.499 577.583 411.487 579.36 411.524C577.985 414.174 576.582 416.779 574.658 415.573ZM590.287 291.575C590.287 291.557 590.292 291.552 590.297 291.534C590.297 291.589 590.296 291.63 590.301 291.685C590.296 291.648 590.292 291.611 590.287 291.575ZM592.029 288.358C592.362 287.224 592.385 291.497 592.81 294.28C591.101 293.531 591.48 290.149 592.029 288.358Z"
        fill="#ebeee3" />
    <path fill-rule="evenodd" clip-rule="evenodd"
        d="M168.262 55.9731C167.174 57.6823 160.068 59.8897 159.661 60.6483C161.215 60.4244 170.565 56.3068 168.262 55.9731Z"
        fill="#ebeee3" />
    <path fill-rule="evenodd" clip-rule="evenodd"
        d="M322.403 2.81486C321.932 1.91914 318.135 2.42181 317.874 1.59921C322.728 0.548109 325.844 3.87053 330.743 4.3321C330.912 3.89338 330.73 3.21697 331.63 3.28095C332.343 3.90247 332.759 4.62002 333.741 5.141C338.942 4.9125 348.617 7.99262 352.963 6.6399C351.848 5.76246 347.401 5.39232 350.202 4.50574C346.428 3.73798 349.572 5.57968 347.652 5.66651C347.538 5.34204 347.09 5.12267 346.19 5.04498C347.561 3.48661 341.204 3.97561 338.704 2.73257C336.757 2.97021 339.938 4.09442 337.74 4.1584C336.186 2.63202 333.033 1.92368 333.161 3.50033C333.641 2.97478 327.042 2.83313 329.459 1.80945C321.247 1.0097 322.111 0.196262 315.644 0.315082C316.243 1.72264 315.685 1.2702 316.279 2.67776C319.337 2.05167 320.388 3.29014 322.403 2.81486Z"
        fill="#ebeee3" />
    <path fill-rule="evenodd" clip-rule="evenodd"
        d="M409.905 61.8319C411.774 62.3254 414.329 63.797 415.832 63.7924C414.338 62.8464 410.878 61.3017 409.905 61.8319Z"
        fill="#ebeee3" />
    <path fill-rule="evenodd" clip-rule="evenodd"
        d="M438.294 63.2852C437.572 64.4871 434.661 62.065 433.226 62.097C434.002 63.5548 439.573 65.0949 438.294 63.2852Z"
        fill="#ebeee3" />
    <path fill-rule="evenodd" clip-rule="evenodd"
        d="M457.991 51.6362C458.338 51.0924 459.924 52.5639 460.367 52.18C459.22 51.6728 458.909 49.5934 460.513 50.4525C461.345 51.6773 462.323 50.8502 464.329 51.3026C460.6 50.0824 455.175 46.4401 453.512 47.1165C456.355 47.642 459.741 50.8776 457.991 51.6362Z"
        fill="#ebeee3" />
    <path fill-rule="evenodd" clip-rule="evenodd"
        d="M459.617 90.0745C458.649 90.8651 460.074 91.9528 461.706 93.0724C461.318 91.2261 465.179 94.9826 463.511 92.9673C462.09 91.971 461.336 92.2681 461.514 91.0022C461.82 91.2307 462.341 91.2215 461.747 90.6914C461.208 90.8605 460.632 90.961 459.942 90.8011C460.052 90.5863 460.129 90.3669 459.617 90.0745Z"
        fill="#ebeee3" />
    <path fill-rule="evenodd" clip-rule="evenodd"
        d="M464.699 94.8226C467.885 98.57 471.719 104.712 475.749 105.27C475.398 104.845 474.739 104.356 474.968 104.054C476.599 105.347 477.591 104.776 479.593 107.148C480.42 106.522 479.177 105.43 478.29 104.424C475.708 103.259 466.482 97.1396 467.304 94.8455C466.44 94.8364 465.344 94.3199 464.699 94.8226Z"
        fill="#ebeee3" />
    <path fill-rule="evenodd" clip-rule="evenodd"
        d="M491.507 81.958C492.517 84.3984 500.35 88.6211 500.309 91.4133C501.625 92.6152 502.406 92.4187 503.914 94.1782C503.243 94.3381 502.434 94.1462 501.762 94.3016C502.959 95.1059 504.198 96.0062 505.386 97.0573C506.533 98.1495 507.689 99.3423 508.845 100.599C511.162 103.113 513.489 105.887 515.828 108.656C520.517 114.199 525.339 119.619 529.973 123.499C530.443 128.238 536.864 129.541 536.243 132.987C536.864 131.835 536.512 132.105 537.769 131.798C533.939 128.805 530.356 122.69 530.749 120.337C530.617 120.246 530.631 120.081 530.95 119.706C530.827 119.857 530.791 120.099 530.749 120.337C531.193 120.643 533.519 119.98 533.583 122.471C534.899 122.741 533.496 119.971 534.771 121.479C535.191 122.965 535.466 124.39 535.603 125.748C536.791 127.082 537.879 127.96 538.989 128.91C538.701 129.29 538.048 129.486 538.532 130.235C539.894 128.311 541.343 133.046 542.051 134.271C542.325 132.347 539.556 128.928 540.049 127.1C538.605 127.352 539.035 126.077 537.412 124.281C537.691 123.897 538.349 123.705 537.851 122.946C537.166 122.732 536.375 119.624 534.259 118.911C535.077 120.319 534.794 120.593 533.839 120.264C532.02 116.859 528.378 114.131 526.87 110.045C525.005 111.211 523.904 108.427 522.162 106.024C521.655 106.325 521.308 107.207 520.517 106.522C519.535 105.297 520.234 104.685 520.088 103.761C520.915 104.794 523.689 106.609 522.487 104.653C521.619 105.338 519.146 100.526 518.278 101.23C519.471 102.413 519.708 103.245 519.009 103.734C518.447 101.673 517.318 103.103 515.609 100.636C514.69 101.138 513.836 101.847 512.652 101.445C512.785 98.6934 509.229 98.9128 507.438 97.0436C506.666 94.8683 505.966 92.9854 506.547 91.3265C504.6 89.9007 504.271 89.1832 503.467 89.0369C504.554 90.1748 503.896 90.8284 504.115 91.7195C500.071 89.174 499.116 87.7893 495.661 84.083C494.231 84.2567 492.791 83.6992 491.507 81.958ZM521.678 110.667C522.505 111.092 523.424 111.823 524.516 113.221C524.096 115.191 521.747 110.036 521.335 112.019C520.782 111.316 521.422 111.064 521.678 110.667Z"
        fill="#ebeee3" />
    <path fill-rule="evenodd" clip-rule="evenodd"
        d="M488.523 114.816C489.409 116.16 489.135 117.161 489.076 118.221C490.159 119.789 490.561 118.678 491.502 119.674C491.013 120.127 491.164 120.771 491.626 121.507C492.969 119.213 489.418 117.508 490.013 115.269C489.647 115.625 488.929 114.634 488.523 114.816Z"
        fill="#ebeee3" />
    <path fill-rule="evenodd" clip-rule="evenodd"
        d="M569.764 194.403C569.485 190.486 572.3 195.555 572.574 193.105C571.29 193.516 570.111 190.857 568.845 190.674C570.582 193.014 568.507 192.433 569.764 194.403Z"
        fill="#ebeee3" />
    <path fill-rule="evenodd" clip-rule="evenodd"
        d="M570.81 207.807C570.243 207.784 569.754 207.094 569.11 207.693C569.969 209.685 569.339 210.357 569.339 211.595C569.782 211.276 571.377 214.831 570.938 212.551C568.79 210.055 571.212 209.489 570.81 207.807Z"
        fill="#ebeee3" />
    <path fill-rule="evenodd" clip-rule="evenodd"
        d="M549.642 475.924C550.99 475.01 553.014 475.234 552.493 474.932C553.042 472.908 550.478 474.16 549.642 475.924Z"
        fill="#ebeee3" />
    <path fill-rule="evenodd" clip-rule="evenodd"
        d="M524.891 511.127C522.999 513.458 520.631 514.509 520.709 516.487C522.039 515.656 524.712 513.211 524.219 515.432C524.653 513.531 530.114 509.966 528.634 510.199C527.194 511.374 523.314 514.303 524.891 511.127Z"
        fill="#ebeee3" />
    <path fill-rule="evenodd" clip-rule="evenodd"
        d="M551.392 541.431C551.292 542.331 551.296 542.267 550.935 545.466C553.156 542.408 555.162 539.424 553.896 537.985C553.248 539.05 550.643 541.019 551.392 541.431Z"
        fill="#ebeee3" />
    <path fill-rule="evenodd" clip-rule="evenodd"
        d="M455.788 578.269C454.75 579.096 453.795 578.836 453.832 579.489C456.496 578.713 451.634 581.496 451.853 582.09C453.585 581.555 457.753 578.722 456.875 578.498C454.165 580.262 455.189 579.316 455.788 578.269Z"
        fill="#ebeee3" />
    <path fill-rule="evenodd" clip-rule="evenodd"
        d="M367.943 614.153C369.035 614.258 370.799 613.764 371.247 614.464C367.751 615.574 361.943 614.797 363.821 616.452C364.863 615.25 368.451 615.707 369.355 616.177C369.977 615.122 376.782 612.037 374.707 612.713C371.508 614.359 368.994 612.924 367.943 614.153Z"
        fill="#ebeee3" />
    <path fill-rule="evenodd" clip-rule="evenodd"
        d="M350.097 615.163C350.148 616.991 347.314 619.07 350.413 619.838C350.02 619.148 351.258 618.897 351.642 618.366C349.238 617.955 349.544 615.67 353.945 614.994C354.389 613.545 351.523 614.989 350.097 615.163Z"
        fill="#ebeee3" />
    <path fill-rule="evenodd" clip-rule="evenodd"
        d="M336.977 618.979C335.455 619.582 338.691 620.272 338.247 621.52L335.217 622.009L334.866 620.103C332.576 621.693 328.088 621.963 329.98 623.229C328.746 622.799 326.836 623.421 326.247 624.189C332.101 623.837 333.568 622.169 338.394 622.278C338.384 621.803 338.444 621.346 339.76 621.268C337.466 620.587 339.614 618.869 336.977 618.979Z"
        fill="#ebeee3" />
    <path fill-rule="evenodd" clip-rule="evenodd"
        d="M304.553 640.892C306.07 641.39 309.909 640.554 308.734 642.583C314.511 642.039 306.422 639.484 304.553 640.892Z"
        fill="#ebeee3" />
    <path fill-rule="evenodd" clip-rule="evenodd"
        d="M272.878 620.254C273.76 620.482 274.574 620.743 275.127 621.122C283.481 620.789 274.542 620.181 272.878 620.254Z"
        fill="#ebeee3" />
    <path fill-rule="evenodd" clip-rule="evenodd"
        d="M268.313 621.995C268.953 623.165 272.398 623.622 274.341 623.421C273.778 622.557 271.055 621.872 272.864 621.031C268.834 620.583 266.43 621.045 263.802 621.387C266 622.818 261.563 622.713 262.952 623.279C263.948 622.799 266.549 622.932 267.504 623.503C268.505 622.58 267.166 622.274 268.313 621.995Z"
        fill="#ebeee3" />
    <path fill-rule="evenodd" clip-rule="evenodd"
        d="M257.957 618.348C258.016 619.317 256.723 619.518 255.603 619.678C255.471 618.855 252.318 619.143 251.929 618.417C251.097 618.668 251.568 619.806 249.58 619.267C236.601 617.242 226.908 616.036 217.901 613.399C213.377 612.202 208.944 611.032 204.255 609.789C201.915 609.153 199.511 608.495 196.993 607.814C194.53 606.96 191.957 606.064 189.233 605.118C188.763 607.682 186.907 603.934 185.422 604.602C186.217 607.042 187.917 607.211 191.212 609.085C192.199 608.107 189.571 607.668 189.503 606.855C190.485 607.211 191.125 607.22 191.765 607.225C190.289 608.486 195.133 609.574 192.556 609.953C197.893 611.429 203.935 612.174 210.452 613.595C213.724 614.258 217.147 614.994 220.739 615.839C222.53 616.269 224.372 616.708 226.259 617.16C228.161 617.53 230.112 617.914 232.123 618.307C232.178 617.635 232.845 617.416 233.791 617.384C235.459 618.618 235.728 618.051 238.996 618.558C237.986 619.555 238.361 619.92 240.253 620.697C240.431 620.268 240.262 619.591 241.148 619.651C245.047 620.222 250.197 620.418 254.73 620.263C258.775 620.094 262.33 619.303 264.126 618.581C262.723 618.901 259.689 618.248 257.957 618.348Z"
        fill="#ebeee3" />
    <path fill-rule="evenodd" clip-rule="evenodd"
        d="M162.307 554.999C164.93 555.986 167.805 557.956 164.821 557.489C166.242 558.573 168.097 559.825 169.235 559.148C171.123 560.931 171.337 563.824 174.244 564.486C174.034 565.131 173.641 565.537 173.028 565.633C175.158 566.31 176.296 565.629 178.074 565.834C179.193 566.52 178 567.452 180.103 568.042C181.067 567.352 184.517 568.202 187.762 569.467C187.556 569.664 187.383 569.856 187.364 570.066C187.323 570.564 187.661 571.09 187.84 571.602C188.137 571.282 188.658 570.98 188.681 570.642C188.699 570.359 188.617 570.066 188.507 569.769C192.108 571.259 195.184 573.169 193.89 573.914C195.769 574.385 197.642 575.121 199.479 575.87C199.466 575.87 199.452 575.87 199.438 575.87C199.192 575.897 198.968 576.222 198.753 576.427C198.36 576.802 198.502 577.351 199.288 577.547C200.956 577.968 202.893 577.451 204.209 579.042C205.763 577.927 207.089 578.429 208.674 579.256C209.579 579.727 210.278 579.247 210.635 578.283C210.754 578.251 210.886 578.251 211.005 578.21C210.909 578.16 210.831 578.105 210.735 578.054C210.818 577.753 210.841 577.392 210.859 577.017C212.006 577.232 213.263 577.552 213.45 576.839C212.614 576.665 211.732 576.473 210.854 576.286C210.726 575.468 210.37 574.316 209.885 574.641C209.223 575.089 208.551 575.363 207.87 575.564C207.249 575.404 206.632 575.271 206.01 575.084C203.487 574.239 200.91 573.325 198.387 572.401C193.351 570.528 188.493 568.718 184.728 567.315C185.194 567 185.71 566.739 186.4 566.684C188.297 567.274 188.991 569.253 190.189 568.055C188.214 567.388 187.332 566.524 186.039 565.734C185.015 566.616 183.219 566.182 181.419 565.501C179.655 564.728 177.863 563.778 176.68 563.915C177.658 563.81 178.005 562.955 177.416 562.124C174.792 561.237 171.424 559.304 170.03 557.389C170.401 556.955 171.287 557.266 171.703 556.895C167.864 555.063 166.228 555.767 162.307 554.999Z"
        fill="#ebeee3" />
    <path fill-rule="evenodd" clip-rule="evenodd"
        d="M179.431 585.572C183.105 585.983 186.258 586.34 189.718 588.867C189.914 588.374 189.667 587.953 189.402 587.528C190.559 587.953 191.226 587.857 191.66 587.505C187.405 586.546 185.44 585.472 181.309 584.617C185.719 586.139 180.491 585.595 179.431 585.572Z"
        fill="#ebeee3" />
    <path fill-rule="evenodd" clip-rule="evenodd"
        d="M172.791 580.874C171.648 580.385 170.793 579.864 170.336 579.325C169.189 580.052 172.544 583.136 171.707 581.656C169.893 580.591 172.923 581.551 172.791 580.874Z"
        fill="#ebeee3" />
    <path fill-rule="evenodd" clip-rule="evenodd"
        d="M157.618 583.219C155.85 585.385 163.642 587.089 163.907 589.151L164.204 588.438C164.624 588.602 165.026 588.753 165.026 588.392C163.495 587.441 161.215 586.559 158.473 584.91C158.656 584.325 159.113 583.726 157.618 583.219Z"
        fill="#ebeee3" />
    <path fill-rule="evenodd" clip-rule="evenodd"
        d="M134.951 600.676C135.664 600.754 137.986 600.146 136.519 599.291C134.659 599.849 133.758 598.455 132.287 598.857C133.475 599.547 133.964 600.068 134.06 600.667C131.542 600.032 131.674 599.456 129.17 597.952C128.672 598.51 129.554 599.159 129.152 599.735C127.008 597.843 124.819 598.117 123.051 597.514C125.13 598.615 124.778 599.543 126.867 600.644C129.508 600.365 131.217 602.024 136.084 603.816C136.203 603.025 137.396 603.596 138.036 603.473C136.212 602.536 135.824 601.604 134.951 600.676Z"
        fill="#ebeee3" />
    <path fill-rule="evenodd" clip-rule="evenodd"
        d="M153.93 528.452C155.507 528.808 156.087 530.746 156.599 530.047C154.273 528.488 155.598 528.118 155.443 527.099C154.204 527.424 153.958 527.049 153.93 528.452Z"
        fill="#ebeee3" />
    <path fill-rule="evenodd" clip-rule="evenodd"
        d="M474.223 61.8639C476.883 64.0301 478.108 63.4269 480.082 64.2632C481.645 65.8353 481.718 67.1423 482.65 68.5955C484.14 69.1165 485.758 70.4646 487.59 72.0184C489.327 73.6865 491.269 75.574 493.568 77.0592C490.634 74.7468 490.812 73.2295 490.136 71.4792C487.435 70.4053 486.434 68.6641 483.957 68.1294C484.428 67.5718 483.971 67.1148 482.956 66.8863C483.619 66.1825 484.19 65.4651 482.865 64.4048C480.863 64.2677 477.925 62.2935 475.914 62.1427C475.59 61.2653 475.562 60.4335 474.931 59.5012C474.657 59.9582 474.155 59.9857 473.652 60.0085C474.785 60.7717 474.877 61.3795 474.223 61.8639Z"
        fill="#ebeee3" />
    <path fill-rule="evenodd" clip-rule="evenodd"
        d="M194.187 613.499C192.67 612.412 190.91 611.333 189.009 610.369C185.202 608.44 180.829 606.964 176.62 606.809C176.35 610.017 173.22 610.25 169.08 609.409C169.975 607.677 165.35 606.548 164.916 604.953C164.564 606.626 161.996 604.803 162.092 605.799C161.891 605.095 161.324 604.414 160.387 603.747C159.876 605.621 155.525 602.851 152.705 601.892C152.193 603.253 153.075 603.285 151.787 604.03C154.638 606.685 161.758 610.236 164.039 611.667C171.442 612.211 179.394 620.866 188.808 623.005C195.092 624.394 199.242 621.629 197.966 616.433C197.03 615.492 195.713 614.55 194.187 613.499Z"
        fill="#ebeee3" />
</svg>